<?xml version="1.0" standalone="no"?>
<!DOCTYPE svg PUBLIC "-//W3C//DTD SVG 20010904//EN"
 "http://www.w3.org/TR/2001/REC-SVG-20010904/DTD/svg10.dtd">
<svg version="1.0" xmlns="http://www.w3.org/2000/svg"
 width="5335.000000pt" height="10088.000000pt" viewBox="0 0 5335.000000 10088.000000"
 preserveAspectRatio="xMidYMid meet">

<g transform="translate(0.000000,10088.000000) scale(0.100000,-0.100000)"
fill="#000000" stroke="none">
<path d="M27300 99113 c-616 -23 -1318 -189 -1825 -432 -224 -108 -555 -312
-782 -482 -486 -365 -877 -778 -1174 -1239 -198 -306 -368 -709 -534 -1265
-159 -533 -233 -963 -315 -1840 -51 -542 -43 -1055 23 -1520 19 -134 21 -199
22 -605 1 -250 5 -484 9 -520 26 -230 79 -527 161 -905 83 -381 159 -632 267
-879 83 -192 105 -264 164 -549 124 -603 264 -1029 461 -1407 91 -174 95 -193
50 -216 -17 -9 -230 -148 -472 -309 -242 -160 -492 -326 -555 -368 -123 -81
-206 -158 -239 -222 -33 -66 -49 -147 -76 -379 -30 -270 -41 -323 -69 -339
-15 -8 -86 -11 -238 -9 -243 3 -344 -7 -462 -46 -172 -56 -476 -290 -634 -486
l-59 -73 -54 17 c-30 10 -92 34 -139 55 -233 102 -316 118 -580 118 -281 0
-498 -39 -830 -149 -443 -147 -764 -357 -861 -562 l-34 -73 -65 5 c-533 44
-740 31 -1019 -60 -608 -199 -1146 -751 -1425 -1462 -75 -192 -123 -397 -176
-748 -39 -264 -48 -342 -59 -514 -6 -80 -16 -163 -24 -185 -8 -23 -45 -92 -83
-155 -37 -63 -87 -155 -110 -205 -114 -246 -194 -608 -236 -1075 -14 -158 -17
-803 -4 -970 10 -144 2 -181 -100 -417 -118 -276 -139 -375 -154 -728 -18
-430 -44 -523 -270 -976 -414 -826 -710 -1499 -948 -2154 -198 -544 -310 -941
-672 -2365 -241 -949 -318 -1238 -594 -2235 -370 -1338 -526 -2099 -526 -2570
0 -378 93 -772 293 -1241 72 -168 119 -267 325 -689 143 -294 357 -763 408
-895 19 -51 18 -67 -26 -286 -53 -261 -135 -710 -265 -1454 -358 -2043 -545
-3000 -687 -3509 -22 -80 -73 -230 -113 -335 -40 -105 -112 -294 -160 -421
-127 -333 -206 -516 -380 -875 -167 -344 -169 -349 -527 -1125 -132 -286 -317
-677 -410 -870 -218 -447 -960 -1984 -1308 -2705 -147 -305 -284 -595 -304
-645 -21 -49 -66 -144 -100 -210 -91 -175 -227 -476 -485 -1078 -126 -293
-261 -604 -301 -692 -78 -171 -278 -633 -442 -1015 -55 -129 -134 -314 -175
-410 -42 -96 -146 -348 -233 -560 -213 -520 -364 -884 -445 -1070 -191 -443
-374 -930 -855 -2270 -300 -838 -445 -1268 -650 -1930 -72 -234 -189 -612
-260 -840 -175 -561 -665 -2310 -799 -2849 -437 -1754 -797 -3482 -1136 -5456
-133 -778 -218 -1332 -334 -2190 -322 -2375 -477 -3619 -691 -5545 -181 -1631
-229 -2217 -201 -2460 87 -750 606 -1653 1570 -2730 197 -221 575 -609 786
-808 121 -114 308 -290 415 -392 107 -102 247 -232 310 -290 63 -57 160 -147
215 -200 55 -52 253 -235 440 -406 396 -362 523 -485 625 -609 41 -49 110
-128 153 -175 135 -147 320 -392 402 -533 16 -28 31 -44 35 -38 6 12 40 -49
40 -73 0 -7 23 -56 50 -107 262 -487 439 -1030 760 -2324 174 -701 200 -813
359 -1518 255 -1127 367 -1568 437 -1714 58 -121 120 -152 188 -93 94 83 169
298 314 910 197 827 346 1658 456 2550 49 397 58 478 226 2270 131 1394 152
1634 161 1905 6 175 26 493 46 730 26 310 36 487 38 675 2 140 8 305 14 365
49 507 101 2686 101 4245 -1 737 -11 1126 -35 1265 -12 71 -15 186 -15 545 0
305 -5 514 -15 635 -17 213 -19 321 -5 330 6 4 81 33 168 65 86 32 279 104
427 160 1091 412 1781 558 2406 510 181 -15 442 -53 651 -96 130 -26 913 -212
925 -218 1 -1 7 -172 13 -381 6 -209 17 -522 25 -695 8 -173 19 -508 25 -745
6 -236 17 -515 26 -620 8 -104 37 -696 64 -1315 39 -865 50 -1211 50 -1495 0
-259 5 -409 15 -500 10 -89 15 -238 15 -470 0 -390 36 -1606 50 -1710 18 -129
32 -1098 20 -1354 -6 -129 -13 -238 -16 -242 -3 -5 -36 -559 -74 -1231 -39
-673 -74 -1254 -79 -1293 -6 -38 -26 -239 -46 -445 -62 -643 -89 -817 -175
-1125 -128 -459 -123 -508 84 -709 63 -61 119 -121 125 -133 21 -42 13 -124
-19 -191 -37 -80 -87 -143 -243 -310 -156 -166 -181 -209 -175 -301 5 -86 35
-146 150 -299 49 -64 101 -139 115 -167 24 -45 25 -56 19 -133 -35 -453 -527
-1747 -1249 -3287 -359 -766 -475 -975 -994 -1790 -419 -658 -583 -935 -698
-1178 -272 -573 -274 -1171 -8 -1867 81 -211 187 -436 279 -590 45 -74 124
-215 178 -313 116 -214 313 -539 445 -735 53 -78 133 -202 177 -274 234 -376
553 -684 870 -838 287 -140 594 -203 979 -203 606 0 1175 172 1655 501 529
362 1059 874 1340 1294 140 210 222 392 259 576 49 240 48 476 -5 952 -43 394
-49 552 -36 928 25 684 75 1126 183 1619 58 264 114 462 249 868 134 406 142
435 166 560 23 127 21 208 -33 1110 -26 440 -48 838 -47 885 1 153 23 215 154
424 158 256 225 407 290 661 103 401 135 758 150 1643 13 758 31 920 182 1592
192 859 502 1937 1228 4260 341 1091 375 1204 649 2115 344 1148 419 1413 597
2110 126 489 207 789 444 1640 219 783 283 1019 401 1475 50 195 111 430 135
522 24 92 49 209 56 259 l13 92 225 -7 c700 -21 1146 -80 1627 -216 240 -68
529 -171 1136 -404 320 -123 843 -317 1162 -431 2085 -744 3363 -1219 3468
-1288 34 -22 125 -266 389 -1047 206 -612 352 -968 843 -2055 352 -779 436
-979 730 -1730 286 -729 385 -1027 441 -1330 22 -122 20 -334 -5 -614 -25
-265 -27 -533 -6 -652 27 -156 98 -322 199 -468 28 -40 59 -86 70 -102 l18
-30 -50 -162 c-142 -453 -175 -634 -175 -947 0 -190 7 -264 59 -670 10 -75 16
-203 17 -320 0 -204 -6 -259 -60 -530 -24 -121 -26 -154 -24 -315 6 -378 5
-387 -17 -500 -50 -257 -76 -612 -70 -955 3 -182 5 -198 27 -240 33 -63 103
-127 205 -185 48 -27 223 -133 389 -234 691 -420 1073 -635 1196 -672 33 -10
41 -8 103 29 75 43 159 69 448 139 228 55 353 64 423 29 61 -30 122 -100 181
-204 29 -53 97 -175 151 -271 385 -694 732 -1085 1290 -1458 732 -489 1603
-851 2395 -997 288 -53 397 -61 795 -60 798 2 1514 89 2325 283 706 168 1181
375 1457 635 107 101 137 157 137 256 0 86 -16 129 -103 280 -73 129 -71 123
-150 427 -83 319 -123 442 -190 574 -139 275 -325 480 -606 667 -192 128 -360
211 -810 402 -335 142 -808 379 -1111 556 -466 272 -954 658 -1448 1144 -499
491 -895 953 -1491 1740 -270 357 -342 445 -494 607 -111 118 -221 255 -221
272 0 3 33 24 72 46 107 59 221 147 262 201 20 26 44 72 52 103 32 109 6 203
-158 571 -212 473 -313 750 -423 1160 -212 790 -368 2036 -405 3250 -5 162
-16 338 -24 390 -23 149 -62 1436 -68 2290 l-3 315 180 7 c99 4 236 14 305 22
117 15 230 27 965 107 1523 165 2343 436 2732 902 154 185 293 416 579 963
270 518 365 685 501 884 456 664 969 932 1684 881 204 -14 453 -50 688 -97
1275 -259 3121 -987 4021 -1587 275 -184 489 -350 1032 -803 684 -570 805
-654 949 -654 139 0 210 110 285 445 42 188 132 655 179 925 251 1468 321
3109 210 4925 -84 1370 -275 2868 -591 4645 -441 2479 -1003 4955 -1680 7395
-134 480 -600 1992 -743 2407 -367 1065 -626 1762 -1038 2798 -196 494 -356
862 -523 1205 -56 116 -158 329 -225 475 -282 608 -638 1333 -944 1925 -100
193 -276 539 -392 770 -302 601 -515 989 -981 1795 -243 418 -462 797 -816
1410 -630 1090 -1398 2347 -2122 3475 -96 149 -226 356 -290 460 -177 289
-1414 2235 -1605 2525 -414 629 -815 1269 -815 1301 0 10 223 185 312 245 111
74 195 102 376 125 216 28 283 53 413 157 209 167 484 533 821 1097 559 934
1107 2313 1789 4500 285 913 309 992 331 1082 20 86 21 97 9 173 l-14 82 43
81 c23 45 71 127 106 181 79 124 109 198 98 246 -5 19 -8 71 -7 115 1 104 43
246 207 699 278 766 439 1348 625 2266 33 162 103 507 156 765 254 1244 364
1926 395 2455 7 115 7 190 1 226 -32 173 -184 354 -588 701 -115 98 -296 259
-403 358 -694 643 -1219 1121 -1282 1168 -252 189 -423 204 -608 53 -30 -25
-120 -116 -200 -203 -165 -178 -186 -192 -334 -222 -227 -46 -299 -119 -501
-511 l-80 -155 -141 -40 c-154 -44 -216 -77 -283 -150 -118 -128 -195 -312
-281 -675 -76 -317 -100 -378 -199 -510 -170 -227 -241 -518 -241 -995 0 -245
-13 -447 -50 -770 -39 -346 -53 -543 -48 -673 3 -96 7 -113 33 -160 43 -79
121 -145 239 -202 118 -58 257 -99 566 -169 124 -28 243 -56 265 -61 67 -18
165 -51 165 -56 0 -2 -35 -75 -79 -162 -356 -712 -676 -1545 -746 -1944 -18
-100 -19 -232 -3 -295 10 -40 9 -47 -7 -56 -42 -23 -96 -82 -119 -130 -17 -34
-30 -91 -41 -166 -28 -205 -36 -222 -178 -369 -62 -64 -133 -146 -157 -182
-24 -36 -129 -182 -234 -325 -104 -143 -232 -318 -284 -390 -151 -206 -242
-314 -242 -286 0 7 14 243 31 524 40 663 37 872 -22 1287 -41 289 -126 635
-223 902 -111 305 -225 542 -436 898 -413 699 -520 965 -446 1108 8 16 21 62
27 101 11 68 11 74 -9 101 -12 16 -22 39 -22 50 0 36 39 175 107 385 154 478
265 904 307 1190 55 369 50 782 -14 1221 -104 708 -290 1311 -557 1799 -36 66
-117 201 -181 299 -198 309 -211 358 -149 552 73 227 94 350 103 604 7 191 -3
264 -48 377 -51 126 -161 254 -303 352 -190 132 -556 264 -676 245 -35 -6 -87
-35 -178 -102 -16 -11 -34 5 -159 144 -113 125 -174 183 -304 286 -281 222
-428 319 -589 389 -153 66 -335 109 -465 109 l-63 0 -11 43 c-79 300 -159 455
-320 617 -117 118 -206 181 -510 365 -236 142 -308 193 -348 243 -17 21 -112
205 -210 409 -99 203 -198 402 -220 440 -117 199 -263 349 -462 470 -259 158
-840 433 -969 459 -26 6 -29 10 -34 64 -9 84 25 335 113 851 41 236 60 303 91
319 11 6 58 8 116 4 88 -6 103 -4 140 15 55 27 71 44 189 187 500 610 938
1347 1051 1771 l26 98 1 640 1 640 -23 50 c-38 83 -64 104 -172 141 l-65 22
-1 158 c0 88 10 276 22 419 13 143 26 308 30 367 4 59 10 106 13 103 4 -2 5
29 4 68 -2 50 0 64 6 47 6 -16 8 7 5 65 -2 70 -1 81 6 50 7 -31 8 -21 5 45 -2
50 -1 77 4 65 27 -64 37 1181 13 1450 -57 615 -217 1214 -461 1720 -121 250
-300 516 -505 747 -47 54 -86 102 -86 107 0 16 -282 281 -400 375 -792 632
-1540 925 -2520 986 -148 9 -501 11 -700 3z m850 -83 c393 -39 758 -121 1080
-242 840 -315 1653 -964 2076 -1658 278 -456 533 -1293 594 -1945 37 -395 17
-1063 -60 -2005 -51 -616 -75 -830 -95 -830 -7 0 -45 -16 -85 -36 -55 -28
-100 -63 -183 -143 -95 -92 -126 -131 -234 -294 -68 -104 -122 -191 -120 -193
2 -3 24 19 48 48 311 378 478 534 583 545 53 6 197 -34 238 -66 36 -29 48 -83
59 -269 10 -187 3 -867 -12 -1039 -11 -138 -40 -232 -123 -407 -229 -480 -624
-1091 -977 -1510 -115 -136 -122 -141 -216 -139 -106 1 -403 35 -403 46 0 16
92 232 128 302 70 133 127 193 203 213 18 4 34 13 36 19 5 14 -67 -6 -124 -35
-46 -24 -109 -90 -143 -149 -13 -23 -26 -40 -30 -38 -9 6 -49 -80 -153 -335
-217 -527 -372 -831 -594 -1170 -271 -411 -628 -812 -1026 -1152 -104 -90
-265 -228 -356 -307 -91 -79 -209 -177 -261 -219 -52 -42 -142 -115 -200 -163
-58 -47 -181 -141 -274 -209 -489 -355 -899 -574 -1189 -636 -176 -37 -410 -1
-560 85 -83 48 -203 150 -333 282 -134 137 -459 540 -629 778 -60 85 -141 189
-180 231 -190 207 -659 874 -802 1140 -231 430 -327 795 -692 2630 -104 520
-194 970 -200 1000 -7 30 -39 215 -72 410 -79 474 -94 612 -129 1165 -13 197
-12 725 0 940 48 822 209 1703 425 2335 278 811 676 1383 1365 1959 326 273
699 514 1040 671 481 222 1032 350 1720 400 156 11 719 5 860 -10z m3817
-5142 c-3 -7 -5 -2 -5 12 0 14 2 19 5 13 2 -7 2 -19 0 -25z m-110 -1340 c-2
-13 -4 -5 -4 17 -1 22 1 32 4 23 2 -10 2 -28 0 -40z m-10 -75 c-3 -10 -5 -4
-5 12 0 17 2 24 5 18 2 -7 2 -21 0 -30z m-10 -65 c-3 -8 -6 -5 -6 6 -1 11 2
17 5 13 3 -3 4 -12 1 -19z m-9012 -1013 c25 -152 121 -654 276 -1435 39 -195
72 -364 75 -375 12 -57 -42 86 -76 199 -104 346 -207 851 -270 1311 -27 207
-50 512 -35 470 2 -5 16 -82 30 -170z m7583 -2587 l82 -11 -5 -31 c-3 -17 -55
-353 -115 -746 -61 -393 -121 -785 -135 -870 -47 -290 -164 -1124 -181 -1285
-27 -264 -20 -716 17 -1055 5 -52 23 -166 40 -254 16 -87 28 -163 27 -168 -2
-6 -28 79 -57 188 -52 193 -63 225 -74 207 -4 -8 187 -724 198 -744 10 -15 25
-10 25 9 0 15 -68 249 -85 293 -4 11 0 18 14 22 26 6 26 0 1 262 -11 116 -20
257 -20 315 0 103 42 517 56 554 11 28 58 17 239 -58 307 -128 689 -329 802
-423 48 -40 294 -901 418 -1468 45 -202 77 -378 130 -720 14 -88 28 -171 31
-185 5 -28 44 1 -521 -390 -107 -74 -315 -218 -462 -320 -764 -529 -1420 -968
-1625 -1088 -76 -44 -181 -99 -234 -122 -85 -37 -107 -43 -193 -47 -172 -10
-400 21 -961 131 -417 81 -1033 209 -1154 240 -50 13 -288 65 -528 116 -373
80 -439 97 -444 113 -3 10 -4 21 -1 23 9 9 643 -16 807 -31 547 -52 1275 -186
1860 -340 119 -32 214 -52 228 -49 12 4 42 1 67 -5 56 -14 68 -8 148 68 32 30
73 64 92 76 18 11 103 85 189 164 186 172 313 273 473 373 206 131 374 208
1003 460 313 126 492 228 721 413 149 120 229 196 229 216 0 17 -12 10 -62
-36 -93 -85 -240 -186 -369 -256 -326 -176 -398 -209 -889 -404 -335 -133
-583 -260 -790 -404 -97 -67 -160 -104 -287 -167 -68 -34 -72 -35 -101 -20
-60 31 -91 114 -117 315 -17 134 -39 409 -56 696 l-12 200 112 1160 c62 638
121 1237 132 1330 66 583 98 909 90 922 -5 10 -10 -4 -14 -43 -24 -220 -152
-1333 -176 -1529 -17 -132 -48 -395 -71 -585 -23 -190 -59 -475 -80 -635 -22
-159 -60 -506 -85 -770 -48 -504 -64 -612 -139 -915 -79 -318 -130 -410 -247
-444 -74 -22 -106 -20 -261 16 l-138 32 -133 156 c-414 483 -623 857 -983
1764 -96 241 -173 440 -171 442 5 5 14 -17 129 -296 105 -254 148 -350 161
-350 16 0 2 116 -67 555 -102 647 -109 700 -103 855 5 156 21 211 107 378 105
206 271 422 477 623 129 126 262 236 598 494 251 193 328 258 495 425 165 163
283 305 373 448 45 73 99 137 216 257 152 156 344 378 467 540 245 321 506
794 719 1298 46 109 62 136 74 132 9 -4 53 -11 99 -17z m124 -1422 c715 -305
1009 -487 1162 -720 94 -143 436 -830 578 -1161 220 -511 304 -973 507 -2775
33 -294 65 -569 69 -610 l9 -75 2 125 c0 69 -6 303 -14 520 -15 409 -24 499
-115 1210 -98 757 -191 1176 -346 1563 -25 61 -42 112 -40 115 13 12 438 -245
576 -349 278 -210 404 -396 450 -663 29 -168 33 -338 21 -736 -17 -559 -26
-1530 -14 -1530 6 0 13 55 17 138 4 75 16 283 27 462 23 384 39 871 42 1239
l2 263 80 -6 c220 -19 361 -57 536 -147 288 -148 601 -404 885 -724 l80 -91
-17 -109 c-10 -61 -30 -222 -44 -360 -27 -274 -70 -605 -141 -1106 -71 -490
-49 -451 67 121 127 631 134 671 169 1023 51 503 68 547 212 547 87 0 178 -29
354 -114 168 -81 261 -145 350 -238 110 -116 150 -214 161 -393 17 -287 -108
-854 -349 -1585 -203 -616 -422 -1068 -682 -1410 -296 -389 -700 -652 -1116
-726 -127 -23 -353 -23 -480 0 -264 47 -525 178 -716 359 -271 257 -447 606
-584 1162 -77 311 -114 539 -235 1420 -36 264 -93 644 -126 845 -34 201 -65
391 -70 422 -12 80 -91 445 -145 668 -103 428 -191 721 -286 950 -160 386
-291 722 -347 884 -33 98 -63 181 -66 184 -10 11 -5 -29 9 -63 24 -56 218
-667 213 -671 -5 -6 -387 284 -443 338 -27 25 -168 153 -313 284 l-263 239 5
55 c13 124 187 1300 193 1300 1 0 81 -33 176 -74z m-6458 -361 c64 -93 130
-188 146 -210 l29 -40 -9 -555 c-8 -490 -11 -556 -25 -566 -9 -7 -55 -18 -103
-24 -48 -7 -117 -23 -154 -35 -38 -13 -69 -22 -70 -22 -1 1 -4 131 -7 290 -4
183 -10 286 -16 285 -6 -2 -9 -105 -7 -293 2 -159 1 -287 -2 -284 -4 3 -17 37
-30 75 -33 93 -33 51 -1 -118 32 -163 76 -333 108 -413 56 -138 149 -329 519
-1069 214 -429 423 -850 463 -936 97 -207 299 -670 368 -845 202 -514 390
-1198 452 -1650 22 -156 22 -367 1 -464 -63 -294 -309 -463 -841 -577 -115
-25 -151 -28 -320 -28 -263 -1 -359 20 -683 150 -605 242 -1285 686 -3417
2230 -1100 797 -1574 1052 -2068 1114 -133 17 -380 8 -524 -19 -463 -87 -974
-350 -1408 -723 -227 -196 -360 -355 -572 -684 -11 -17 -12 -16 -12 9 -2 77
59 537 100 762 66 361 178 673 330 922 69 113 207 291 308 396 633 660 1463
830 2346 480 756 -299 1599 -880 3144 -2167 390 -325 502 -416 510 -416 15 1
-657 656 -764 746 -222 185 -537 436 -799 638 -837 641 -1416 1009 -1943 1235
-134 57 -384 143 -457 156 -20 4 -38 11 -41 15 -7 12 85 129 161 204 302 299
1051 543 1564 511 430 -28 708 -179 1145 -626 225 -231 955 -1056 1727 -1952
15 -18 28 -28 28 -23 0 15 -261 357 -669 878 -171 218 -681 801 -948 1083
-176 187 -362 355 -509 461 l-29 21 29 37 c56 74 262 273 351 339 102 76 258
157 355 184 56 15 107 18 355 18 263 0 292 2 317 18 27 19 58 81 58 119 0 35
14 12 74 -124 82 -189 244 -536 357 -768 106 -217 359 -680 371 -680 18 0 5
34 -46 122 -191 331 -417 785 -658 1323 l-90 200 17 135 c25 210 53 375 71
420 28 70 54 89 808 597 264 178 483 320 486 316 4 -5 59 -84 124 -178z m548
-927 c68 -73 173 -184 233 -248 568 -594 705 -753 1147 -1319 l207 -266 90
-225 c49 -124 120 -307 157 -407 53 -141 73 -183 87 -183 9 0 17 2 17 5 0 8
-102 274 -190 495 -45 113 -88 234 -96 270 -8 36 -17 74 -20 85 -2 11 7 -2 22
-30 15 -27 75 -185 134 -350 106 -295 133 -366 283 -755 235 -609 424 -1027
595 -1310 165 -275 242 -379 519 -711 10 -12 -25 -7 -172 22 -407 83 -864 149
-1185 172 -205 14 -187 -2 -189 172 -5 479 -85 1107 -221 1730 -170 773 -194
876 -245 1032 -55 168 -154 428 -155 407 0 -6 34 -159 76 -340 41 -181 111
-490 155 -686 l79 -358 0 -167 c0 -93 5 -229 10 -303 21 -291 29 -559 20 -683
-16 -225 -71 -392 -180 -547 -33 -47 -76 -109 -96 -138 -20 -29 -39 -51 -40
-49 -2 2 -28 89 -58 193 -73 252 -157 496 -254 739 -182 454 -254 609 -680
1465 -152 305 -275 559 -274 564 2 5 -11 61 -27 125 -46 176 -71 339 -71 463
0 188 114 1119 151 1236 7 21 17 32 29 32 11 0 70 -55 142 -132z m5736 -213
c105 -96 194 -180 198 -186 4 -7 -22 9 -59 35 -36 26 -130 87 -209 135 -79 49
-143 93 -142 100 1 6 2 29 3 51 0 22 5 40 10 40 4 0 94 -79 199 -175z m-11911
-2941 c186 -27 411 -105 613 -211 152 -80 569 -332 680 -411 52 -37 175 -123
273 -191 98 -68 254 -178 346 -244 93 -67 211 -152 262 -189 52 -37 193 -139
314 -226 121 -87 319 -230 440 -316 121 -86 256 -183 300 -215 70 -52 267
-189 573 -399 50 -35 92 -66 91 -70 0 -6 -46 -41 -164 -126 -9 -7 -25 0 -51
21 -57 45 -294 192 -438 272 -293 161 -479 218 -751 227 -242 9 -427 -28 -631
-125 -153 -73 -431 -267 -589 -411 -44 -40 -117 -104 -162 -142 -46 -38 -134
-118 -195 -177 -62 -60 -136 -128 -164 -152 -217 -186 -1027 -997 -1171 -1173
-26 -33 -79 -95 -118 -139 -38 -44 -96 -112 -128 -151 -32 -39 -65 -80 -75
-91 -12 -15 -103 -45 -327 -109 -170 -49 -380 -113 -465 -142 -373 -126 -730
-253 -787 -279 -64 -28 -86 -53 -36 -40 67 17 556 159 620 181 73 24 827 242
872 252 19 4 7 -15 -62 -99 -47 -57 -132 -160 -189 -229 -56 -69 -195 -228
-308 -355 -233 -260 -374 -425 -416 -488 -16 -23 -49 -69 -74 -102 -92 -119
-169 -261 -246 -450 -20 -48 -78 -228 -88 -270 -1 -5 -7 -26 -14 -45 -19 -58
-50 -236 -68 -395 -25 -210 -25 -781 -1 -1010 24 -221 54 -420 82 -550 13 -60
43 -199 65 -307 23 -108 63 -286 90 -395 l49 -198 -30 -40 c-16 -22 -79 -113
-138 -202 -104 -154 -156 -260 -176 -351 -5 -23 -18 -40 -46 -57 -21 -14 -42
-25 -46 -25 -5 0 -1 5 7 10 29 19 -67 11 -115 -10 -50 -21 -101 -73 -99 -101
2 -32 -63 -56 -526 -199 -290 -89 -769 -298 -885 -385 -22 -17 -80 -57 -129
-89 -266 -176 -523 -429 -681 -668 -25 -38 -73 -86 -149 -146 -107 -86 -312
-288 -388 -382 -47 -58 -108 -159 -108 -179 0 -8 107 94 238 227 131 133 243
242 249 242 6 0 -20 -60 -57 -133 -163 -323 -322 -816 -379 -1177 -35 -216
-44 -367 -38 -613 9 -397 66 -723 207 -1198 176 -589 439 -1138 815 -1704 241
-362 693 -831 1072 -1112 135 -100 436 -286 588 -362 134 -68 423 -194 545
-237 282 -99 637 -184 975 -233 209 -31 597 -61 774 -61 268 0 735 48 971 99
47 11 86 18 88 17 8 -8 -519 -262 -643 -310 -713 -275 -1133 -336 -2191 -321
-356 5 -548 3 -698 -6 -113 -7 -206 -16 -206 -19 0 -4 -37 -10 -82 -14 -46 -4
-128 -14 -183 -22 -266 -40 -432 -37 -619 11 -228 58 -382 142 -531 290 -188
187 -276 341 -610 1070 -73 160 -178 385 -233 501 -248 523 -399 860 -512
1145 -168 423 -227 653 -245 964 -25 428 114 1140 524 2690 154 583 351 1345
450 1740 209 837 442 1739 506 1960 272 944 470 1432 1135 2795 248 508 293
605 341 735 l34 90 1 325 c1 351 7 403 61 554 36 102 145 328 153 319 4 -4 17
-73 29 -152 12 -80 23 -147 25 -149 21 -21 18 475 -5 713 -19 200 -16 823 4
1020 29 277 79 527 147 735 44 136 149 340 228 448 38 51 107 156 153 233 233
391 525 690 939 962 343 225 722 380 1055 431 124 19 354 19 482 0z m13433
-764 c22 -168 49 -359 59 -425 11 -66 27 -167 36 -224 11 -65 13 -107 7 -113
-5 -5 -207 -135 -448 -288 -943 -598 -1206 -767 -1639 -1055 -381 -253 -479
-324 -500 -364 -30 -58 -15 -209 69 -716 30 -181 67 -411 81 -510 14 -99 28
-189 30 -200 13 -61 37 -361 44 -570 14 -366 -17 -1047 -49 -1079 -6 -6 -36
-6 -87 2 -43 7 -177 26 -298 42 -268 37 -386 59 -402 74 -13 13 -32 157 -68
516 -65 653 -110 996 -171 1299 -43 213 -161 686 -209 837 -47 151 -65 168
-225 219 -232 73 -562 139 -1575 314 -286 50 -564 98 -618 108 l-99 18 6 30
c22 122 26 162 26 255 0 128 -21 314 -55 486 -14 71 -25 134 -25 139 1 6 58
-134 128 -310 92 -231 132 -321 145 -323 26 -5 22 14 -43 180 -234 600 -248
638 -231 638 11 0 68 -102 183 -323 91 -177 177 -343 189 -369 23 -47 45 -61
55 -34 3 7 -46 112 -109 232 -162 311 -239 465 -234 471 6 5 69 -6 84 -15 5
-4 74 -103 153 -219 78 -117 148 -213 156 -213 41 0 20 37 -176 318 -39 56
-70 102 -68 102 2 0 212 -45 468 -100 1079 -233 1429 -304 1786 -361 l140 -22
57 -226 c32 -124 58 -234 57 -244 0 -10 -25 -42 -55 -72 -133 -129 -155 -308
-60 -471 54 -92 184 -178 321 -212 l71 -17 38 -190 c21 -104 53 -251 72 -325
24 -98 39 -192 53 -340 11 -113 22 -221 25 -240 14 -101 26 -356 34 -706 9
-420 13 -448 64 -471 42 -19 214 -56 231 -50 9 4 24 24 33 44 13 33 15 76 10
308 -7 344 -38 614 -133 1150 -34 193 -150 793 -160 826 -3 12 9 25 41 43 109
64 157 144 157 260 -1 144 -57 233 -187 297 -69 34 -86 48 -95 73 -6 17 -35
137 -65 266 -30 129 -57 245 -60 256 -4 18 1 22 34 27 59 7 200 69 328 142
206 118 823 528 1503 1000 146 101 357 247 470 325 113 78 304 210 425 295
203 141 221 152 227 132 4 -12 25 -159 48 -327z m4355 -690 c188 -295 263
-440 375 -720 173 -434 329 -1080 387 -1605 22 -206 22 -573 -1 -765 -47 -391
-181 -930 -348 -1395 -28 -77 -64 -171 -81 -208 l-30 -68 -41 39 c-53 51 -228
192 -238 192 -18 0 147 -201 219 -266 44 -40 90 -92 103 -118 l25 -46 -30 -82
c-75 -208 -24 -354 375 -1073 430 -774 594 -1169 689 -1658 68 -346 86 -592
78 -1077 -6 -348 -14 -485 -54 -950 l-17 -205 -60 -70 c-102 -121 -434 -444
-652 -635 -216 -189 -641 -541 -718 -595 -102 -71 -235 -177 -284 -227 -52
-53 -199 -263 -221 -317 -8 -19 -29 -36 -64 -52 -28 -13 -80 -43 -116 -66
l-65 -43 -106 0 c-162 -1 -344 -47 -515 -133 -88 -43 -220 -126 -213 -132 2
-3 67 20 143 51 221 87 331 116 490 130 l80 7 -75 -60 c-116 -92 -350 -300
-385 -341 -46 -54 -155 -217 -155 -231 0 -6 101 79 224 190 283 252 429 370
572 459 61 38 114 70 116 70 3 0 -10 -44 -29 -97 -50 -143 -107 -386 -153
-648 -66 -387 -74 -487 -75 -945 0 -510 7 -568 110 -961 103 -388 275 -693
541 -955 194 -191 337 -286 634 -420 134 -61 370 -143 429 -149 20 -2 95 -17
166 -34 305 -70 712 -125 1107 -149 l118 -7 -208 -157 c-114 -86 -219 -161
-234 -167 -16 -6 -28 -15 -28 -20 0 -11 -206 -151 -301 -204 -105 -59 -184
-83 -436 -136 -368 -78 -493 -117 -809 -254 -198 -86 -337 -156 -569 -287
-229 -129 -252 -141 -359 -184 -163 -66 -294 -81 -444 -50 -86 17 -382 122
-530 187 l-95 42 -18 65 c-10 36 -16 73 -13 83 15 51 -46 169 -185 356 -87
118 -111 162 -118 219 l-5 50 95 102 c103 110 137 165 137 224 0 47 -14 74
-107 203 -64 88 -74 109 -65 123 6 10 44 60 84 112 98 125 161 221 200 304 25
55 33 85 36 151 7 138 -34 226 -233 503 -165 228 -209 300 -243 393 -69 190
-80 308 -92 957 -21 1123 -11 1403 70 1970 44 305 73 453 155 785 75 303 159
582 260 865 103 287 159 513 192 780 25 202 23 966 -4 1382 l-18 287 89 143
c255 411 361 593 502 863 173 332 327 768 384 1085 50 284 71 679 53 980 -5
80 -8 146 -7 148 1 2 15 -5 31 -14 40 -26 510 -404 556 -448 21 -20 44 -36 51
-36 7 0 21 -9 31 -20 19 -21 40 -26 49 -11 4 5 -148 133 -336 285 -189 151
-353 284 -366 295 -20 17 -25 36 -37 158 -49 461 -143 901 -279 1308 -81 240
-127 346 -281 656 l-125 249 25 16 c33 21 193 204 285 324 68 90 197 295 248
395 192 378 392 898 537 1396 l49 167 30 -42 c16 -22 80 -120 141 -216z
m-4225 -260 c16 -116 102 -542 146 -723 l36 -147 -38 -46 c-22 -26 -50 -61
-64 -79 -14 -18 -46 -58 -72 -88 -95 -108 -45 -79 71 42 l118 123 11 -30 c9
-26 6 -35 -20 -73 -16 -24 -34 -55 -39 -68 -5 -13 -82 -129 -170 -258 -164
-240 -178 -263 -161 -263 6 0 72 91 148 203 75 111 152 222 171 247 18 25 48
64 65 88 l32 42 28 -77 c105 -289 321 -612 523 -783 200 -169 412 -275 666
-332 90 -20 131 -23 309 -23 220 0 308 13 488 71 164 53 388 176 539 296 l62
49 77 -148 c152 -289 282 -598 368 -873 219 -709 308 -1635 221 -2307 -54
-416 -236 -934 -480 -1368 -165 -293 -246 -432 -315 -540 -43 -66 -105 -172
-140 -235 -34 -63 -120 -212 -191 -331 -118 -197 -154 -272 -115 -240 8 6 46
60 86 119 40 59 81 113 91 119 9 7 27 29 39 49 12 19 24 33 27 30 11 -10 33
-482 39 -816 13 -699 -22 -925 -240 -1570 -136 -402 -193 -603 -255 -898 -194
-932 -227 -1352 -202 -2627 14 -726 27 -846 112 -1052 34 -80 134 -235 243
-377 152 -196 185 -252 212 -357 31 -122 -23 -243 -229 -512 -46 -59 -63 -75
-73 -67 -19 17 -82 174 -106 264 -20 80 -21 135 -2 256 6 40 5 44 -8 32 -23
-19 -52 -183 -53 -292 0 -90 3 -100 42 -188 49 -110 128 -242 218 -365 36 -49
65 -99 65 -112 0 -30 -36 -82 -128 -182 -97 -106 -115 -136 -108 -188 l5 -40
-472 -28 c-260 -15 -624 -37 -810 -49 -331 -21 -338 -21 -358 -2 -18 16 -40
20 -143 22 -106 3 -747 -37 -876 -54 -112 -16 -150 -57 -150 -166 0 -38 -2
-68 -4 -68 -2 0 -34 21 -72 46 -142 96 -363 186 -536 219 -534 104 -1230 -127
-1670 -553 -43 -42 -78 -74 -78 -71 0 17 -41 234 -50 268 -14 53 -56 81 -120
81 -94 0 -456 -48 -1040 -139 -292 -45 -346 -56 -377 -77 -21 -13 -23 -23 -25
-125 l-3 -112 -45 -13 c-25 -7 -50 -21 -57 -31 -9 -11 -13 -57 -13 -141 l0
-123 -42 5 c-24 4 -333 11 -688 16 -756 12 -1147 23 -1970 57 l-175 7 75 18
c41 10 212 50 380 88 168 39 348 82 400 95 295 75 956 185 1713 286 210 28
427 57 482 65 55 7 294 34 530 59 391 43 460 53 443 70 -5 5 -751 -29 -893
-41 -113 -9 -393 -43 -490 -59 -114 -19 -455 -65 -475 -64 -8 0 -4 5 10 11 14
6 20 12 14 15 -7 2 -205 -14 -440 -36 -1017 -96 -1442 -124 -1889 -125 -351
-1 -478 8 -656 44 -109 22 -262 70 -254 79 10 10 173 36 825 130 525 76 786
110 1140 149 57 6 65 10 68 30 3 18 -1 22 -25 22 -135 -1 -1644 -205 -1966
-267 l-138 -26 -82 56 c-194 132 -369 322 -511 554 -98 161 -220 427 -292 638
-95 277 -197 760 -210 998 -11 197 46 639 105 817 50 147 113 260 147 260 22
0 44 -80 53 -198 6 -64 13 -328 16 -587 6 -431 16 -660 31 -700 11 -27 33 -16
43 23 23 85 42 355 66 927 48 1118 55 1242 80 1330 9 30 40 85 80 138 106 144
182 291 238 457 44 130 89 279 111 368 l22 86 74 18 c281 69 710 226 925 339
315 165 806 442 990 559 215 136 416 288 680 515 77 66 199 167 270 225 187
150 409 334 491 407 123 109 153 172 179 371 9 66 28 150 45 199 47 134 105
354 145 554 20 101 46 205 56 231 10 26 24 88 30 137 l12 89 746 247 c410 136
940 311 1176 390 237 79 503 167 593 195 150 47 195 70 140 70 -36 0 -308 -64
-515 -120 -183 -50 -346 -102 -1078 -344 -811 -268 -1040 -342 -1043 -335 -4
10 37 302 44 308 8 8 663 210 834 257 461 128 1614 334 2005 358 136 9 165 14
165 31 0 8 -3 16 -7 18 -18 10 -481 -36 -632 -63 -25 -4 -183 -31 -351 -59
-570 -97 -1053 -201 -1345 -290 -72 -22 -242 -74 -380 -117 -137 -42 -258 -79
-267 -81 -14 -4 -18 1 -18 20 0 61 12 71 127 111 180 63 1404 367 1632 406
329 55 605 78 1106 89 220 6 522 6 670 2 249 -7 298 -12 630 -60 198 -28 407
-60 465 -71 58 -10 249 -42 425 -70 440 -71 1098 -202 1255 -251 138 -42 496
-127 504 -119 20 20 -16 33 -231 86 -120 30 -238 61 -263 69 -200 64 -947 210
-1490 290 -96 14 -195 30 -220 36 -25 5 -146 25 -270 44 l-225 34 285 -5 c275
-4 295 -6 580 -50 162 -25 311 -49 330 -54 27 -7 718 -132 928 -167 17 -3 32
-1 32 4 0 5 -170 47 -377 92 -208 46 -409 92 -448 102 -391 106 -1039 204
-1680 254 -226 18 -358 46 -464 99 -36 19 -116 54 -177 79 -163 67 -265 115
-304 142 -51 35 -104 109 -136 190 -15 39 -31 72 -35 75 -15 10 -58 208 -75
343 -18 145 -16 252 11 472 12 92 18 259 22 570 4 347 8 443 19 455 17 20 30
105 46 305 17 210 17 935 0 1110 -39 409 -62 579 -133 1009 -57 345 -79 515
-79 603 0 61 1 62 43 96 86 70 715 489 1122 747 116 74 224 143 240 156 17 12
122 79 235 149 113 70 237 149 275 175 39 26 169 110 290 185 121 76 242 153
269 172 27 19 53 30 56 26 4 -4 13 -46 20 -93z m-3415 -710 c32 -77 78 -140
104 -140 5 0 19 8 32 18 l22 19 -16 84 c-21 105 -21 101 5 97 20 -3 27 -24 78
-238 89 -370 91 -375 200 -419 105 -43 162 -130 163 -246 1 -223 -284 -316
-562 -183 -139 66 -215 179 -214 315 1 95 38 157 146 249 28 24 37 39 37 62 0
17 -25 130 -55 250 -30 121 -55 222 -55 224 0 2 18 2 40 -1 41 -6 41 -7 75
-91z m105 43 c6 -21 13 -64 17 -95 6 -55 5 -58 -16 -58 -18 0 -29 14 -55 73
-55 119 -55 117 -2 117 44 0 45 -1 56 -37z m-5990 -329 c58 -39 179 -116 270
-171 91 -55 194 -118 230 -140 228 -140 662 -345 834 -394 305 -88 496 -107
735 -74 122 17 350 71 456 108 245 86 438 220 522 364 l26 46 46 -54 c25 -30
113 -126 196 -214 83 -88 218 -234 300 -324 271 -296 271 -296 279 -282 5 8
-26 47 -91 114 -129 132 -352 380 -406 451 -23 30 -95 113 -159 185 -65 71
-118 132 -118 134 0 3 8 3 18 1 136 -28 423 -80 852 -154 914 -158 1169 -211
1402 -286 114 -37 122 -46 163 -182 20 -64 42 -129 50 -144 21 -41 109 -396
154 -623 74 -370 116 -686 186 -1378 48 -479 50 -493 72 -519 20 -22 18 -22
442 -83 l366 -52 0 -349 c-1 -363 -13 -547 -56 -849 -23 -163 -93 -518 -116
-584 -40 -123 -133 -272 -228 -366 -84 -84 -245 -164 -590 -294 -148 -56 -349
-133 -445 -171 -207 -81 -573 -217 -825 -305 -99 -35 -197 -70 -217 -79 -42
-18 -42 -17 -28 34 11 42 70 485 145 1090 87 708 89 730 89 1010 0 222 -3 267
-21 350 -49 225 -137 377 -327 565 -141 139 -279 244 -566 430 l-205 132 -7
49 c-3 27 -11 96 -17 154 -20 187 -80 367 -162 486 -99 145 -298 281 -518 354
-212 71 -368 90 -797 97 l-352 6 -6 47 c-9 67 -39 151 -85 235 -26 49 -36 77
-30 87 9 16 -5 205 -22 302 -13 73 -47 170 -81 227 -41 69 -143 174 -218 224
-100 67 -184 102 -480 205 -479 166 -534 194 -855 429 -88 65 -189 137 -224
162 -54 37 -61 45 -46 54 9 5 56 35 103 66 l87 55 85 -56 c47 -31 132 -87 190
-126z m19885 -5 c33 -30 119 -107 191 -170 330 -289 650 -577 776 -698 181
-174 183 -240 42 -1071 -30 -179 -71 -408 -90 -510 -19 -102 -57 -304 -84
-450 -65 -351 -200 -951 -306 -1360 -300 -1157 -565 -2097 -704 -2490 -72
-205 -142 -391 -146 -387 -2 2 15 59 36 128 144 447 334 1216 541 2184 33 154
91 424 130 600 39 175 126 587 194 915 68 327 155 744 194 925 138 654 213
1047 218 1151 7 125 -7 171 -79 269 -29 39 -288 308 -577 599 -459 463 -557
568 -336 365z m-20664 -826 c13 -16 12 -17 -3 -4 -17 13 -22 21 -14 21 2 0 10
-8 17 -17z m7123 -383 c38 -204 67 -372 64 -375 -3 -3 -29 -6 -59 -8 l-53 -2
-8 45 c-5 25 -19 108 -33 185 -13 77 -42 223 -65 324 -22 101 -40 185 -40 187
0 2 21 5 105 12 19 2 25 -25 89 -368z m-6885 119 c21 -43 31 -77 31 -108 0
-99 -70 -291 -207 -566 -77 -155 -363 -693 -448 -845 -23 -41 -104 -192 -180
-335 -76 -143 -142 -265 -147 -272 -5 -7 -95 -180 -200 -385 -104 -205 -187
-365 -184 -356 199 641 562 1592 907 2376 219 496 240 565 202 669 -5 15 -2
14 19 -5 15 -14 31 -20 41 -16 22 8 21 13 -5 44 -13 15 14 -11 58 -56 53 -53
93 -104 113 -145z m786 31 c406 -50 563 -84 690 -148 209 -105 419 -307 505
-486 117 -246 96 -515 -82 -1056 -61 -186 -83 -247 -243 -660 -48 -124 -122
-317 -165 -430 -43 -113 -99 -259 -125 -325 -157 -407 -314 -942 -338 -1155
-2 -19 -5 10 -5 65 -5 279 63 624 273 1383 109 398 216 792 289 1072 83 321
154 694 163 865 7 131 -11 216 -58 284 -23 34 -26 42 -12 36 60 -24 75 -27 85
-17 17 17 3 27 -89 65 -74 31 -99 47 -153 103 l-65 66 75 -37 c41 -21 134 -71
207 -111 72 -41 139 -74 147 -74 69 0 -115 120 -370 241 -82 39 -207 99 -279
134 -154 76 -203 91 -480 149 l-210 44 85 1 c47 0 117 -4 155 -9z m6175 -574
c0 -20 -8 -27 -51 -41 -28 -9 -52 -15 -54 -13 -2 1 -6 15 -10 30 -7 27 -1 30
108 47 4 0 7 -10 7 -23z m14 -73 c14 -50 57 -346 52 -358 -4 -11 -22 -15 -70
-15 l-65 0 -5 33 c-6 43 -26 276 -26 303 0 16 11 26 38 37 49 21 70 21 76 0z
m-4539 -323 c105 -6 278 -19 385 -30 428 -43 605 -95 723 -214 92 -92 220
-313 287 -496 66 -178 61 -518 -11 -898 -66 -350 -253 -983 -436 -1477 -184
-496 -213 -594 -233 -786 -14 -127 -2 -280 36 -463 13 -65 24 -121 24 -125 -1
-16 -22 34 -59 143 -100 290 -119 564 -61 866 34 172 75 316 195 680 141 430
189 591 264 900 98 399 141 687 142 945 0 162 -10 250 -40 336 -73 214 -199
316 -566 462 -236 94 -422 133 -670 143 -151 6 -277 20 -200 23 17 0 116 -4
220 -9z m4585 -131 c-14 -4 -49 -7 -78 -8 -53 -1 -53 -1 -50 27 3 26 5 27 73
32 68 5 70 4 75 -20 4 -20 1 -26 -20 -31z m35 -41 c7 -23 37 -310 32 -314 -2
-3 -43 -7 -89 -11 l-85 -6 -7 89 c-3 49 -7 123 -8 164 l-1 75 49 6 c84 10 104
9 109 -3z m39 -390 c9 -77 16 -215 11 -220 -3 -3 -47 2 -98 11 l-92 16 -3 109
c-2 81 1 112 10 118 7 4 48 8 90 8 l77 0 5 -42z m-108 -238 c32 -6 74 -13 92
-16 l32 -5 0 -119 c0 -139 7 -133 -110 -97 l-75 23 -7 54 c-9 80 -9 170 0 170
5 0 35 -5 68 -10z m-2865 -426 c158 -100 327 -224 466 -340 260 -220 364 -393
404 -673 19 -134 6 -479 -30 -791 -71 -619 -172 -1397 -237 -1840 -46 -310
-158 -938 -174 -975 -5 -11 -16 -45 -26 -75 -9 -30 -19 -62 -22 -70 -5 -13 -3
-13 11 -1 21 17 21 12 3 -79 -12 -61 -13 -63 -19 -30 -3 19 -8 84 -11 144 -4
96 -2 122 25 233 81 338 203 1106 284 1783 41 344 117 1295 118 1480 1 195
-12 261 -75 384 -36 68 -65 103 -183 222 -77 77 -223 212 -325 299 -102 88
-224 197 -272 244 -85 81 -88 86 -88 129 0 54 -7 56 151 -44z m-7748 -1096
c-69 -89 -136 -196 -313 -503 -94 -162 -148 -342 -170 -560 -6 -66 -13 -138
-16 -160 -2 -22 -7 -193 -10 -380 -3 -187 -10 -364 -15 -394 -5 -30 -9 -75 -9
-100 0 -64 -12 -43 -60 109 -97 308 -174 643 -190 826 -23 257 29 393 237 631
97 112 531 543 546 543 6 0 6 -4 0 -12z m2265 -2319 c-23 -28 -55 -67 -71 -87
-15 -21 -33 -44 -40 -52 -16 -19 -181 -253 -272 -385 -38 -55 -71 -102 -74
-105 -18 -16 -247 -388 -265 -430 -3 -8 -4 50 -2 130 5 206 36 301 147 466 64
95 221 260 304 319 54 39 305 195 313 195 2 0 -16 -23 -40 -51z m3421 -1194
c-13 -494 -22 -548 -121 -680 -92 -122 -338 -361 -654 -635 -86 -74 -101 -85
-73 -50 293 366 589 761 625 832 19 38 50 124 69 191 34 117 137 565 151 655
4 23 8 41 10 40 1 -2 -2 -161 -7 -353z m17551 284 c-157 -144 -369 -244 -599
-283 -158 -27 -377 -15 -388 21 -6 17 86 43 362 102 351 76 501 121 630 189
22 12 42 21 45 21 3 0 -20 -23 -50 -50z m-25315 -47 c9 -26 38 -157 66 -292
61 -297 120 -567 153 -698 15 -58 21 -99 15 -102 -8 -6 0 -58 36 -230 8 -40
-158 280 -244 471 -101 222 -121 292 -121 424 0 138 52 491 70 480 5 -3 16
-26 25 -53z m7972 -572 l0 -75 -7 60 c-4 33 -8 94 -7 135 l0 75 7 -60 c4 -33
8 -94 7 -135z m2144 -105 c-6 -99 -18 -211 -26 -250 -20 -95 -81 -217 -146
-292 -104 -120 -390 -361 -759 -638 -100 -75 -90 -63 236 261 187 186 375 382
416 434 171 214 247 388 263 605 3 44 9 96 13 115 l6 35 4 -45 c2 -25 -1 -126
-7 -225z m-10908 153 c-8 -46 -16 -188 -19 -317 -4 -169 -9 -242 -19 -261 -14
-27 -77 -88 -175 -170 -29 -25 -69 -60 -89 -79 -68 -64 -166 -137 -266 -196
-130 -76 -537 -350 -640 -430 -94 -74 -354 -314 -476 -442 -180 -187 -324
-391 -481 -678 -101 -185 -149 -309 -208 -540 -4 -16 -18 -55 -30 -85 -13 -30
-33 -86 -45 -125 -13 -38 -27 -70 -32 -70 -13 0 -30 86 -49 247 -21 192 -15
415 15 570 23 112 73 291 96 343 8 17 44 111 80 209 123 331 197 480 328 656
88 118 248 279 391 392 129 103 474 337 741 503 105 65 235 148 290 183 104
68 440 281 534 339 30 18 58 33 61 33 4 0 0 -37 -7 -82z m8754 -170 c-3 -8 -6
-5 -6 6 -1 11 2 17 5 13 3 -3 4 -12 1 -19z m17183 -348 c-62 -509 -251 -1371
-429 -1962 -55 -182 -172 -517 -277 -790 -168 -438 -525 -1206 -808 -1737 -46
-86 -136 -259 -201 -386 -178 -349 -411 -788 -457 -863 -100 -166 -187 -261
-279 -308 -98 -49 -356 -85 -598 -83 l-106 1 70 13 c211 40 265 86 485 415 78
118 182 269 230 335 547 755 813 1200 1095 1829 75 169 320 767 390 956 317
847 503 1431 730 2285 76 285 107 387 138 453 l22 47 3 -55 c2 -30 -2 -98 -8
-150z m-18945 -2527 c-245 -232 -391 -290 -770 -307 -55 -3 -127 -7 -160 -10
-52 -5 -43 -1 63 27 67 17 126 37 130 43 4 6 68 32 142 58 141 50 370 142 550
220 58 25 110 46 115 45 6 0 -26 -34 -70 -76z m-256 -1075 c-35 -66 -154 -276
-174 -307 -13 -20 -67 -115 -119 -211 -53 -96 -96 -172 -96 -167 0 26 230 451
328 605 61 95 88 131 61 80z m-476 -853 c-3 -9 -8 -14 -10 -11 -3 3 -2 9 2 15
9 16 15 13 8 -4z m16256 -2625 c76 -118 326 -512 557 -875 458 -719 720 -1132
1256 -1980 209 -331 1053 -1682 1228 -1965 855 -1386 1496 -2452 2043 -3395
1724 -2972 2801 -5135 3737 -7505 155 -393 404 -1052 505 -1340 551 -1564
1006 -3094 1475 -4960 842 -3357 1453 -6560 1705 -8940 107 -1018 151 -1717
162 -2605 16 -1314 -83 -2585 -302 -3874 -118 -691 -196 -991 -273 -1052 -79
-62 -207 22 -712 466 -313 276 -665 562 -925 751 -649 473 -1370 838 -2410
1217 -199 73 -200 74 -199 103 0 16 6 85 12 154 27 279 35 692 34 1745 -1
2078 -51 4207 -137 5860 -58 1097 -190 2419 -340 3405 -50 326 -254 1454 -262
1446 -2 -2 3 -107 11 -232 57 -856 80 -2033 80 -4174 0 -2311 -29 -3593 -114
-5135 -79 -1423 -157 -2191 -272 -2673 -20 -84 -24 -93 -43 -89 -11 2 -118 32
-237 65 -248 69 -556 140 -769 176 -1072 183 -1698 -75 -2251 -929 -120 -185
-305 -516 -518 -930 -162 -314 -312 -571 -418 -715 -118 -159 -307 -331 -479
-434 -249 -149 -658 -284 -1169 -385 -471 -94 -1394 -216 -2407 -319 -162 -17
-180 -17 -185 -3 -4 9 -7 718 -6 1576 0 1448 5 1959 35 3265 6 267 12 712 13
990 1 555 -3 605 -55 683 -33 50 -166 159 -294 242 -49 31 -91 58 -92 59 -8 7
-42 853 -73 1831 -50 1558 -49 1515 -35 1559 8 23 50 160 95 306 45 146 134
413 196 594 65 186 114 344 114 365 0 50 -29 100 -81 140 -24 18 -45 37 -47
41 -2 4 36 61 83 125 160 220 252 396 303 582 26 95 26 106 26 358 -1 225 -4
286 -28 455 -37 272 -42 400 -22 605 24 243 94 751 191 1399 176 1175 281
2007 355 2816 17 184 33 351 36 370 4 19 62 256 129 525 103 411 194 791 351
1473 85 367 261 1287 344 1792 77 468 142 1054 181 1630 12 182 26 914 35
1790 12 1119 -31 2499 -111 3615 -58 807 -153 1648 -220 1950 -30 131 -38 276
-18 296 20 20 39 -5 71 -94 37 -102 56 -219 82 -497 11 -118 39 -343 61 -500
34 -240 257 -1595 398 -2415 22 -126 96 -588 166 -1025 69 -437 132 -833 141
-880 24 -132 112 -676 234 -1450 61 -388 113 -712 116 -720 5 -13 62 -366 245
-1500 38 -239 81 -502 94 -585 14 -82 41 -274 60 -425 73 -566 168 -1203 265
-1775 109 -645 173 -1072 250 -1685 28 -217 70 -534 95 -705 189 -1315 267
-1972 414 -3485 144 -1472 187 -2000 231 -2850 11 -212 23 -403 25 -425 20
-154 90 -1145 105 -1500 14 -320 43 -807 85 -1445 22 -331 40 -723 50 -1060
17 -602 29 -849 50 -1060 28 -280 51 -699 70 -1300 9 -280 23 -495 35 -541 6
-21 19 -43 29 -49 25 -13 23 -64 66 1625 3 121 10 452 16 736 5 284 19 738 30
1010 16 379 22 778 29 1714 4 671 11 1315 14 1430 9 288 34 1444 46 2100 14
748 12 5952 -1 6620 -6 292 -11 798 -10 1125 1 401 -3 691 -13 890 -22 439
-26 561 -36 1190 -9 513 -19 809 -35 1040 -3 41 -12 190 -20 330 -67 1125
-151 2158 -221 2715 -61 487 -190 1216 -335 1890 -75 350 -346 1444 -426 1720
-19 66 -95 342 -169 613 -74 272 -153 552 -175 624 -22 72 -94 320 -159 552
-65 231 -137 480 -159 551 -22 72 -91 294 -153 495 -171 558 -655 1990 -851
2520 -207 560 -311 838 -377 1010 -43 113 -119 315 -169 450 -49 135 -119 324
-156 420 -37 96 -127 337 -201 535 -178 482 -283 753 -399 1035 -54 129 -113
280 -132 335 -36 106 -75 264 -67 276 2 4 23 10 47 14 80 12 250 57 318 85 82
34 176 89 289 168 47 33 91 59 99 59 7 -1 75 -99 150 -217z m-4038 -52 c30
-45 82 -118 117 -162 35 -44 72 -97 83 -118 l19 -38 -44 0 c-24 0 -100 -13
-168 -30 -318 -76 -866 -138 -1478 -165 -74 -3 -145 -8 -157 -11 -20 -4 -22 1
-27 59 -12 131 -33 432 -31 435 6 6 327 28 1405 96 118 7 218 14 221 15 4 0
31 -36 60 -81z m-3497 -27 c54 -13 139 -38 188 -57 115 -44 308 -142 308 -157
0 -11 75 -57 93 -57 5 0 21 -8 35 -18 15 -10 43 -19 62 -20 19 -2 49 -9 66
-17 81 -38 196 -177 273 -333 17 -34 46 -86 65 -115 18 -28 43 -71 55 -95 l22
-43 -47 -55 c-57 -66 -53 -82 5 -19 23 25 46 45 51 45 19 0 10 -15 -20 -35
-28 -19 -39 -35 -22 -35 4 0 16 7 26 15 11 8 25 15 32 15 14 0 101 -218 148
-371 43 -144 81 -320 103 -486 22 -165 25 -711 5 -878 -42 -344 -135 -645
-285 -925 -44 -83 -57 -100 -63 -85 -4 10 -45 64 -91 118 -46 55 -83 107 -83
117 0 9 -40 74 -90 143 -49 69 -90 134 -89 144 0 10 6 34 13 53 l12 34 64 -92
c57 -82 90 -112 90 -81 0 5 -32 55 -71 109 l-70 99 39 113 c80 228 107 414 99
691 -6 220 -27 355 -82 524 -69 208 -206 453 -255 453 -11 0 -20 -5 -20 -10 0
-6 22 -49 50 -98 251 -442 307 -1014 149 -1510 l-31 -95 -30 47 c-17 25 -37
46 -44 46 -20 0 -18 -8 22 -66 l36 -53 -22 -30 c-12 -17 -28 -31 -36 -31 -8 0
-14 -10 -14 -25 0 -69 -148 -289 -250 -371 -96 -79 -239 -163 -315 -187 -90
-28 -257 -30 -355 -3 -82 22 -233 96 -283 139 l-38 32 55 100 c31 55 56 103
56 108 0 4 -6 7 -14 7 -8 0 -38 -45 -67 -99 -29 -55 -57 -97 -62 -94 -4 3 -6
11 -3 18 3 8 -6 21 -20 29 -13 9 -24 24 -24 34 0 10 52 108 116 217 64 110
159 277 211 370 53 94 127 223 165 287 48 82 67 124 63 138 -3 10 -1 29 5 40
6 12 10 28 8 36 -2 13 -7 12 -24 -5 -12 -11 -24 -18 -27 -15 -2 2 -17 -1 -33
-7 -16 -6 -45 -13 -64 -15 -73 -8 -97 -16 -303 -113 -295 -138 -469 -204 -488
-184 -9 10 -30 187 -36 316 -14 288 64 629 206 903 54 104 66 135 59 153 -11
31 -24 19 -83 -69 -62 -93 -127 -233 -172 -369 -35 -108 -39 -115 -73 -129
-30 -13 -104 -14 -545 -8 -311 4 -513 10 -519 16 -25 25 56 397 134 610 57
156 144 328 230 455 40 58 74 105 77 105 2 0 25 -16 50 -35 49 -37 63 -42 63
-22 0 6 -20 26 -45 42 -46 31 -56 51 -31 61 9 4 51 -25 106 -73 50 -43 95 -79
100 -81 28 -10 0 21 -85 97 -52 46 -95 87 -95 91 0 10 186 189 250 239 263
209 538 328 870 376 148 22 458 14 584 -14z m907 -16 c29 -12 30 -14 11 -15
-13 0 -20 -4 -17 -10 3 -5 15 -10 26 -10 20 0 94 -68 125 -114 9 -15 23 -26
31 -26 8 0 12 -4 8 -9 -3 -5 2 -16 10 -24 8 -9 15 -19 15 -22 0 -4 25 -47 55
-97 30 -49 55 -93 55 -97 0 -5 11 -25 25 -45 l24 -36 -37 0 c-20 -1 -75 -9
-122 -19 l-86 -17 -182 170 -182 171 0 72 c0 93 11 120 52 132 51 14 152 13
189 -4z m739 5 c20 -10 40 -59 40 -96 0 -25 14 -32 25 -14 12 19 25 -1 25 -37
l0 -35 -21 23 -20 24 6 -181 7 -181 -158 -6 c-87 -4 -159 -5 -161 -4 -1 2 -8
84 -14 183 -5 98 -13 206 -15 240 l-6 60 94 16 c113 19 173 21 198 8z m-5877
-327 c-7 -2 -19 -2 -25 0 -7 3 -2 5 12 5 14 0 19 -2 13 -5z m2321 -31 c46 -8
47 -12 67 -150 l12 -87 -58 -80 c-31 -44 -75 -111 -98 -149 -56 -95 -61 -96
-306 -96 -110 0 -202 3 -204 8 -3 4 -6 122 -8 262 l-4 255 80 12 c188 30 428
41 519 25z m-7443 -159 c13 -16 12 -17 -3 -4 -10 7 -18 15 -18 17 0 8 8 3 21
-13z m-7837 -712 c307 -139 1050 -676 1291 -932 356 -380 391 -446 505 -959
80 -363 174 -947 255 -1585 151 -1191 222 -1882 320 -3105 20 -250 39 -550 75
-1145 59 -981 164 -2213 271 -3175 127 -1153 169 -1489 340 -2745 178 -1310
225 -1620 284 -1875 74 -322 161 -640 140 -507 -7 43 -3 45 32 17 15 -11 28
-18 31 -16 12 12 -40 904 -93 1601 -36 469 -54 743 -80 1205 -19 343 -29 482
-60 835 -14 154 -27 307 -30 340 -3 33 -14 218 -25 410 -33 573 -49 807 -85
1260 -41 520 -56 734 -95 1410 -56 964 -95 1516 -145 2035 -28 288 -48 580
-70 1010 -19 358 -40 667 -60 855 -15 141 -63 764 -110 1410 -14 193 -27 370
-30 395 -3 25 -14 185 -25 355 -57 887 -82 1455 -63 1455 23 0 244 -309 454
-632 340 -524 557 -905 714 -1253 208 -461 297 -726 415 -1245 95 -415 150
-804 319 -2250 90 -767 163 -1385 205 -1745 25 -209 93 -798 151 -1310 58
-511 130 -1137 160 -1390 65 -553 233 -2034 241 -2137 6 -66 2 -88 -34 -218
-75 -268 -133 -504 -182 -740 -35 -170 -66 -289 -113 -430 -313 -933 -558
-2121 -677 -3284 -94 -924 -110 -1464 -110 -3866 0 -1979 -6 -2177 -75 -2639
-78 -517 -181 -874 -374 -1293 -44 -97 -88 -205 -97 -239 -19 -76 -17 -119 31
-479 19 -140 48 -358 64 -485 17 -126 38 -268 46 -315 23 -128 22 -133 -39
-208 -123 -154 -209 -299 -240 -401 -32 -110 -20 -195 69 -456 30 -88 58 -186
61 -218 10 -83 -25 -181 -151 -422 -595 -1135 -941 -1937 -1282 -2966 l-127
-386 -126 -42 c-69 -23 -147 -45 -175 -50 -69 -12 -239 -68 -300 -98 -189 -95
-344 -276 -385 -448 -16 -71 -23 -489 -12 -830 5 -159 8 -291 7 -293 -3 -3
-607 147 -613 152 -13 14 -101 689 -147 1126 -41 404 -139 1443 -195 2075 -70
791 -177 1941 -205 2196 -8 76 -24 276 -35 445 -11 170 -28 406 -39 524 -11
118 -30 364 -41 545 -28 447 -38 591 -55 785 -8 91 -22 336 -30 545 -8 209
-31 767 -50 1240 -89 2178 -132 3427 -124 3600 4 94 12 557 18 1030 13 1105
27 1520 76 2200 37 515 61 946 105 1895 51 1101 70 1462 126 2360 57 930 146
2196 169 2385 13 115 215 2789 215 2853 0 30 -5 54 -14 61 -17 14 -39 -55
-162 -494 -92 -332 -214 -763 -287 -1015 -25 -85 -88 -310 -141 -500 -52 -190
-117 -419 -144 -510 -27 -91 -66 -228 -87 -305 -20 -77 -93 -347 -162 -600
-164 -605 -474 -1831 -612 -2420 -61 -258 -124 -528 -141 -600 -95 -399 -386
-1761 -479 -2245 -268 -1393 -388 -2099 -566 -3348 -65 -452 -139 -1269 -179
-1977 -61 -1053 -78 -1955 -80 -4005 -1 -1419 1 -1659 17 -1975 10 -198 22
-637 27 -975 5 -338 14 -725 20 -860 28 -667 51 -1093 115 -2095 24 -385 53
-851 65 -1035 11 -185 29 -423 41 -530 13 -121 22 -266 23 -380 l1 -185 -55
-19 c-43 -15 -958 -345 -1007 -363 -14 -6 -18 52 -38 542 -18 448 -40 915
-100 2195 -163 3446 -203 5018 -235 9255 -6 742 -12 1351 -14 1352 -2 2 -6
-45 -10 -104 -4 -60 -11 -173 -16 -253 -52 -826 -56 -1443 -20 -3860 39 -2642
83 -3945 240 -7175 188 -3853 211 -5774 105 -8465 -78 -1967 -256 -4326 -451
-5985 -159 -1359 -306 -2253 -504 -3071 -79 -328 -215 -785 -254 -854 l-14
-24 -21 34 c-60 99 -164 506 -421 1640 -545 2408 -857 3433 -1247 4093 -262
444 -537 758 -1218 1391 -175 163 -630 583 -730 675 -793 730 -1444 1399
-1839 1891 -370 460 -604 815 -821 1245 -223 441 -319 767 -332 1130 -9 248
13 515 113 1355 30 256 88 746 129 1090 41 344 117 1005 170 1470 179 1580
344 2892 500 3985 345 2415 689 4309 1115 6145 182 781 280 1178 486 1965 210
797 597 2122 884 3025 252 793 654 1972 899 2639 215 583 269 727 428 1141
678 1763 1435 3519 2446 5675 264 564 682 1432 1307 2715 522 1072 687 1414
925 1920 254 541 590 1313 725 1668 24 62 44 111 45 110 2 -2 -13 -84 -32
-183 -31 -163 -147 -800 -432 -2360 -203 -1116 -275 -1514 -387 -2145 -63
-355 -154 -872 -204 -1150 -455 -2561 -943 -5628 -1184 -7455 -66 -494 -71
-541 -121 -1080 -25 -269 -63 -681 -85 -915 -24 -262 -36 -428 -30 -434 6 -6
13 0 18 15 5 13 39 276 76 584 144 1194 364 2819 515 3807 297 1936 717 4461
1056 6338 52 289 137 768 190 1064 53 296 116 647 141 780 25 133 95 516 155
851 60 336 148 813 194 1060 46 248 120 653 165 900 44 248 86 464 91 480 31
90 109 345 109 354 0 6 -7 11 -15 11 -20 0 -19 14 2 31 36 30 104 220 202 564
94 331 248 859 359 1230 192 641 240 804 318 1093 138 513 189 672 214 672 6
0 39 -13 74 -29z m16050 -1434 l1 -68 -68 -30 c-38 -16 -73 -26 -78 -23 -5 3
-9 0 -9 -7 0 -7 -3 -9 -6 -6 -4 4 -19 -2 -33 -12 -14 -9 -127 -61 -251 -113
-124 -53 -291 -126 -372 -162 -132 -58 -149 -63 -157 -48 -43 81 -146 677
-122 705 8 8 827 137 876 137 19 0 36 4 39 9 3 5 31 12 61 16 30 3 61 13 69
20 8 8 18 38 22 67 7 41 11 2 17 -182 5 -129 10 -266 11 -303z m5074 -592 c43
-82 232 -474 232 -481 0 -3 16 -38 36 -77 81 -163 421 -1005 515 -1277 41
-119 80 -261 98 -365 18 -97 236 -1740 280 -2105 42 -345 84 -739 146 -1365
45 -451 68 -636 100 -797 31 -152 45 -195 124 -373 81 -179 105 -279 98 -405
-5 -86 -38 -259 -70 -367 l-13 -43 -52 36 c-78 52 -315 169 -404 199 -88 29
-244 55 -331 55 -86 0 -244 -19 -307 -36 -92 -26 -578 -230 -635 -267 -16 -10
-22 -17 -13 -13 289 94 630 190 743 207 119 18 316 16 400 -5 94 -23 342 -127
441 -185 169 -100 208 -137 319 -311 61 -94 89 -164 120 -293 51 -215 59 -316
59 -802 1 -247 -1 -542 -3 -655 l-4 -205 66 -195 c135 -400 217 -798 342
-1660 180 -1246 291 -2316 345 -3330 18 -323 24 -1203 11 -1545 -38 -1043
-128 -1881 -397 -3735 -207 -1429 -222 -1542 -230 -1765 -6 -148 5 -301 41
-610 18 -155 20 -432 4 -536 -28 -181 -114 -370 -267 -584 -55 -78 -113 -168
-130 -201 -39 -77 -115 -255 -110 -259 9 -8 49 18 70 47 13 18 37 50 52 71
l27 37 31 -17 c43 -26 68 -61 68 -98 0 -18 -34 -128 -75 -244 -41 -117 -100
-294 -131 -394 -31 -100 -65 -204 -76 -231 -20 -51 -119 -376 -252 -826 -41
-140 -82 -272 -91 -293 -13 -32 -45 -155 -60 -237 l-5 -25 14 25 c19 35 138
326 201 494 l53 140 6 -115 c3 -63 8 -222 11 -354 3 -132 10 -357 15 -500 6
-143 17 -456 25 -695 23 -659 43 -1123 66 -1565 25 -457 22 -495 -33 -552 -18
-18 -80 -58 -138 -87 -129 -66 -492 -222 -615 -264 -511 -174 -919 -263 -1440
-314 -140 -14 -919 -17 -967 -5 -17 5 -34 20 -44 40 -9 17 -40 73 -69 122 -29
50 -103 185 -165 300 -62 116 -137 251 -165 300 -55 94 -177 319 -226 415 -45
90 -167 411 -204 540 -73 253 -117 519 -135 820 -19 322 -7 2008 20 2790 22
622 57 1025 91 1046 22 13 82 -47 147 -146 38 -58 163 -220 277 -360 114 -140
253 -311 309 -380 139 -171 171 -199 200 -170 11 12 -27 93 -123 259 -24 42
-111 200 -193 351 -83 151 -165 300 -183 330 -18 30 -95 170 -170 310 -141
263 -191 348 -212 365 -28 22 -283 643 -398 965 -103 292 -239 730 -274 885
-23 102 -51 287 -51 334 0 17 -4 31 -9 31 -12 0 -58 -55 -65 -77 -7 -23 -119
-754 -146 -953 -12 -85 -24 -237 -27 -336 -9 -291 16 -440 133 -789 122 -367
119 -440 -26 -681 -164 -271 -215 -528 -180 -909 38 -417 42 -499 31 -600 -14
-122 -60 -322 -135 -587 -75 -265 -105 -384 -175 -713 -109 -509 -112 -545
-110 -1386 1 -385 -4 -795 -10 -939 -7 -140 -13 -377 -14 -526 l-2 -270 -55
17 c-363 116 -592 237 -647 343 -87 168 -64 630 82 1651 60 418 63 435 164
980 113 609 192 955 283 1235 190 590 216 722 225 1125 6 303 -1 352 -77 499
-73 140 -70 174 23 288 24 29 76 94 116 143 41 50 85 115 99 144 54 118 37
265 -59 492 -110 263 -107 344 28 723 41 116 78 234 82 261 9 69 -3 164 -34
270 -28 98 -256 674 -355 900 -34 77 -124 286 -201 465 -77 179 -160 368 -184
420 -25 52 -108 241 -184 420 -77 179 -171 397 -209 485 -39 88 -111 259 -162
380 -50 121 -109 259 -131 307 -22 48 -106 249 -186 445 -80 197 -161 396
-181 443 -88 215 -332 872 -417 1125 -252 752 -372 1221 -505 1973 l-41 233
66 286 c36 158 67 289 70 291 9 9 24 -45 50 -170 33 -166 356 -1458 401 -1605
19 -63 64 -217 100 -341 178 -617 361 -1098 711 -1867 180 -396 637 -1324 780
-1585 44 -80 123 -226 177 -325 113 -206 257 -471 361 -660 39 -71 91 -170
115 -218 25 -49 58 -103 73 -120 l28 -32 -6 45 c-8 67 -113 370 -225 655 -54
137 -153 392 -220 565 -68 173 -129 327 -136 342 -16 31 -132 348 -229 623
-37 105 -83 233 -102 285 -87 232 -354 1105 -428 1399 -127 505 -258 1177
-309 1581 -82 647 -109 1117 -109 1905 1 1175 59 1894 210 2580 98 449 170
637 321 838 153 203 270 309 512 460 192 121 331 186 615 287 143 51 316 118
385 150 69 32 236 108 373 169 218 98 325 151 306 151 -3 0 -81 -27 -172 -60
-92 -32 -299 -93 -464 -135 -164 -42 -343 -89 -398 -105 -55 -16 -167 -45
-250 -65 -82 -19 -159 -38 -170 -41 -35 -10 194 102 400 196 110 51 288 134
395 185 107 51 305 144 440 205 135 62 274 127 310 146 36 18 200 96 365 173
349 161 652 305 1065 506 413 200 743 350 865 392 204 69 417 108 741 133 357
27 413 37 229 39 -280 2 -581 -26 -847 -79 -260 -53 -343 -86 -928 -372 -151
-75 -313 -152 -360 -173 -47 -20 -130 -59 -185 -85 -55 -26 -143 -67 -195 -90
-52 -24 -99 -46 -105 -50 -5 -5 -127 -62 -271 -128 -143 -66 -332 -155 -420
-197 -87 -42 -213 -102 -279 -132 l-120 -56 -235 -34 c-762 -110 -935 -118
-1020 -47 -40 34 -67 112 -80 235 -24 216 18 456 163 919 36 113 70 232 77
263 l13 57 66 0 c164 0 445 36 711 90 80 16 341 66 580 110 239 45 602 115
805 156 204 41 511 103 683 137 269 53 312 64 312 79 0 11 -7 18 -17 18 -10 0
-160 -29 -333 -65 -606 -124 -1829 -363 -2190 -427 -169 -30 -319 -47 -468
-54 l-140 -7 20 84 c39 169 48 279 48 644 1 532 16 864 74 1553 8 90 15 164
17 166 2 2 182 63 399 136 217 73 440 149 495 170 55 21 225 80 378 131 222
75 277 97 277 111 0 10 -6 18 -14 18 -17 0 -470 -153 -651 -220 -77 -29 -300
-105 -495 -170 -195 -65 -363 -121 -372 -125 -10 -4 -18 -3 -18 2 0 5 46 24
103 42 56 18 163 57 237 86 144 57 1013 356 1193 411 59 19 122 40 140 48 18
8 156 56 308 106 152 51 283 96 290 101 11 6 11 11 2 20 -9 9 -55 -3 -205 -55
-213 -75 -828 -287 -1473 -509 -231 -80 -458 -156 -504 -170 l-83 -26 6 157
c4 95 3 151 -2 142 -5 -8 -21 -69 -36 -135 -43 -197 -40 -190 -89 -204 -69
-21 -231 -83 -245 -94 -11 -8 -11 -13 0 -24 12 -11 24 -9 78 13 111 44 200 73
200 65 0 -11 -120 -57 -327 -126 -116 -38 -173 -61 -173 -71 0 -27 56 -14 275
61 l218 76 -7 -83 c-4 -46 -11 -166 -16 -268 -5 -102 -12 -212 -15 -245 -20
-221 -38 -629 -45 -1045 -9 -502 -12 -541 -60 -719 l-12 -44 -116 7 c-148 8
-575 52 -712 72 -245 37 -976 120 -991 113 -9 -5 -202 33 -473 92 -251 54
-467 99 -479 99 -18 0 -19 -2 -7 -13 25 -22 183 -61 740 -182 294 -64 598
-131 675 -150 325 -81 919 -205 929 -195 7 7 7 13 0 20 -6 6 -215 55 -465 110
-452 100 -720 164 -644 155 22 -3 177 -21 345 -40 168 -19 348 -42 400 -50
117 -18 537 -62 683 -71 59 -4 107 -8 107 -9 0 -11 -297 -882 -324 -953 -50
-126 -66 -244 -66 -480 0 -164 -3 -206 -22 -280 -27 -110 -60 -146 -169 -185
-76 -27 -273 -71 -292 -64 -6 2 49 23 121 48 98 32 132 48 132 60 0 31 -30 29
-138 -10 -328 -119 -505 -170 -717 -206 -115 -20 -223 -38 -240 -41 -16 -2 62
27 175 65 172 58 283 101 260 101 -3 0 -177 -40 -385 -90 -397 -94 -530 -129
-705 -187 -294 -96 -773 -214 -1275 -313 -88 -17 -187 -38 -219 -46 -33 -9
-269 -50 -525 -93 -442 -74 -541 -96 -541 -120 0 -14 111 -14 260 0 130 12
692 104 905 148 264 56 560 119 671 145 104 24 139 26 605 41 599 18 906 32
1142 50 99 7 185 11 193 8 8 -3 14 -15 14 -28 0 -43 -79 -179 -151 -260 -152
-172 -178 -219 -205 -378 -9 -50 -31 -153 -49 -227 -19 -74 -68 -288 -110
-475 -41 -187 -93 -410 -115 -495 -21 -85 -100 -431 -175 -769 -75 -338 -145
-646 -155 -685 -11 -39 -58 -246 -105 -461 -212 -965 -234 -1059 -261 -1108
-8 -15 -13 -31 -9 -36 9 -16 -234 -994 -300 -1206 -18 -60 -55 -184 -80 -275
-130 -462 -338 -1110 -512 -1588 -75 -210 -368 -928 -415 -1017 -11 -22 -60
-125 -108 -230 -156 -337 -512 -1035 -580 -1135 -9 -14 -70 -122 -135 -240
-65 -118 -159 -282 -208 -365 -49 -82 -128 -217 -175 -300 -47 -82 -111 -190
-142 -240 -31 -49 -110 -180 -175 -290 -65 -110 -148 -247 -185 -305 -37 -58
-127 -205 -201 -327 -73 -122 -135 -221 -136 -219 -3 3 16 108 155 881 101
555 210 1144 256 1385 26 132 227 1511 225 1545 -3 71 -115 -423 -204 -904
-36 -195 -75 -391 -85 -435 -22 -93 -146 -757 -250 -1341 -39 -219 -78 -427
-85 -460 -20 -86 -94 -521 -165 -975 -101 -641 -129 -772 -210 -970 -51 -125
-147 -295 -237 -422 -53 -74 -322 -403 -410 -500 -78 -87 -196 -246 -237 -321
-19 -34 -44 -93 -56 -132 -20 -66 -21 -82 -15 -262 l7 -192 -27 -58 c-44 -98
-160 -201 -358 -318 -176 -103 -217 -157 -217 -285 0 -30 18 -205 40 -389 60
-512 76 -722 61 -858 -19 -183 -31 -215 -268 -673 -165 -321 -268 -632 -308
-935 -9 -72 -21 -138 -26 -147 -20 -39 -31 -491 -19 -823 33 -996 27 -1226
-55 -1930 -13 -115 -31 -289 -40 -385 -30 -327 -79 -558 -133 -621 -72 -86
-441 -284 -733 -392 -249 -93 -664 -224 -874 -276 -97 -24 -326 -74 -488 -107
l-29 -6 6 54 c3 29 8 175 11 323 3 149 10 428 15 620 13 440 14 788 5 840 -11
58 -32 94 -61 105 -33 13 -31 13 -37 -12 -4 -12 -8 -20 -11 -17 -3 3 8 81 23
174 21 121 26 174 18 183 -6 8 -14 9 -19 4 -5 -5 -52 -264 -103 -575 -52 -312
-104 -613 -115 -669 -12 -57 -58 -327 -104 -601 -46 -274 -86 -500 -88 -503
-3 -3 -76 -8 -162 -11 -154 -6 -156 -6 -156 15 0 21 -3 21 -113 15 -70 -4
-139 -1 -182 6 -103 18 -372 84 -510 126 -358 108 -904 401 -1566 839 -206
136 -308 205 -379 257 l-66 48 42 133 c148 464 389 1203 581 1778 36 107 136
413 224 680 87 267 233 706 325 975 346 1015 449 1329 544 1670 61 215 80 387
80 722 0 134 4 233 11 250 l11 28 20 -25 c53 -63 120 -262 192 -562 24 -101
65 -263 90 -361 25 -97 46 -191 46 -207 0 -17 4 -30 9 -30 11 0 14 -13 47
-160 37 -169 46 -163 40 25 -3 88 -8 243 -11 345 -12 392 -43 900 -90 1449
-14 157 -23 286 -21 289 2 2 0 19 -6 39 -7 27 -7 38 3 43 10 7 10 14 0 38 -7
17 -10 36 -6 42 3 5 -1 72 -9 148 -9 75 -25 233 -36 351 -11 118 -25 220 -29
225 -17 21 -43 245 -50 436 -4 107 -6 327 -3 489 5 332 3 338 -59 214 -75
-153 -132 -417 -154 -723 -15 -207 -25 -294 -38 -307 -3 -2 -14 0 -26 6 -13 8
-22 26 -27 57 -10 72 2 250 24 344 28 117 40 213 52 430 6 102 19 282 30 400
11 118 29 361 40 540 25 402 34 504 70 850 16 151 43 417 60 590 16 173 41
423 55 555 13 132 56 589 95 1015 105 1155 186 1987 220 2250 5 41 39 305 74
585 172 1353 295 1994 554 2885 57 197 282 891 345 1065 75 206 253 680 320
850 76 195 392 956 417 1004 11 22 85 190 164 373 139 321 284 641 404 893
115 241 645 1293 703 1396 166 292 380 442 709 499 180 30 480 68 770 95 428
41 487 51 505 93 5 12 17 24 25 27 17 5 251 -53 588 -147 172 -48 225 -59 234
-50 9 9 9 15 -2 27 -23 22 -608 183 -935 256 -55 12 -131 37 -170 55 -73 34
-394 143 -777 265 -125 40 -226 74 -224 76 4 4 275 -35 285 -41 4 -3 101 -21
216 -40 475 -82 1154 -230 1424 -310 328 -98 1253 -358 1257 -353 2 1 -111 51
-250 109 -194 82 -314 125 -512 183 -143 42 -299 89 -349 105 -133 42 -575
151 -850 210 -216 46 -263 60 -470 140 -126 48 -311 118 -410 155 -99 37 -201
78 -227 91 -102 52 -153 119 -190 250 -21 74 -22 99 -22 394 0 223 5 367 17
495 27 273 76 708 93 820 8 55 42 286 74 513 261 1815 481 2847 745 3500 l18
43 51 -6 c114 -12 1122 -67 1571 -85 587 -23 961 -30 1762 -30 l843 0 4 -22
c2 -13 9 -77 15 -143 16 -169 43 -247 106 -310 35 -36 67 -57 110 -72 227 -82
625 -151 917 -160 222 -7 238 -3 273 67 20 39 27 75 36 186 7 91 16 144 25
155 8 9 21 37 30 62 9 26 19 49 24 52 4 2 83 -71 176 -164 135 -134 193 -184
289 -247 123 -82 285 -158 443 -208 212 -67 539 -103 733 -81 l57 7 7 -272 c5
-194 11 -270 19 -267 7 2 15 80 24 228 7 123 15 247 18 275 l5 51 52 12 c29 6
65 18 81 26 15 8 76 35 135 61 58 25 140 67 181 94 41 27 99 64 129 81 30 18
109 85 176 150 l121 118 45 -17 c35 -13 81 -16 234 -15 195 1 552 26 615 43
37 10 68 37 90 79 19 36 39 167 40 252 0 57 4 80 16 90 26 22 46 69 60 148 7
42 13 81 14 87 0 6 46 16 113 23 312 33 654 86 870 132 239 52 609 171 772
248 l80 38 31 -46 c17 -25 45 -73 62 -106z m-4623 -266 l35 -31 -39 -72 c-21
-39 -76 -141 -121 -226 -114 -216 -300 -560 -317 -588 -14 -22 -14 -22 -44 -5
-17 10 -39 28 -51 40 l-20 22 35 58 c28 46 224 387 454 791 14 23 26 42 29 42
2 0 19 -14 39 -31z m2530 -206 c-7 -203 -15 -253 -57 -340 l-29 -63 -72 0
c-40 0 -134 -7 -210 -17 -75 -9 -140 -13 -144 -10 -3 4 0 19 7 34 9 19 16 98
21 248 8 254 13 278 55 284 86 10 374 39 402 40 l33 1 -6 -177z m-2402 103
c31 -21 57 -43 57 -48 0 -4 -17 -43 -39 -86 -21 -42 -93 -194 -159 -337 -66
-143 -141 -302 -166 -354 -25 -51 -44 -97 -41 -101 5 -8 101 -44 163 -60 50
-13 58 -35 10 -25 -18 4 -49 15 -68 24 -19 10 -60 26 -90 36 -30 10 -93 35
-138 56 l-84 39 67 127 c37 71 125 234 195 363 70 129 148 275 174 323 26 48
51 87 54 85 4 -2 33 -21 65 -42z m-326 -73 c-2 -5 -63 -109 -134 -233 -71
-124 -153 -268 -183 -320 -59 -108 -58 -105 -66 -98 -3 4 15 41 39 85 93 163
218 376 250 426 19 29 46 73 61 100 15 26 29 47 32 47 3 0 3 -3 1 -7z m1047
-70 c60 -212 196 -702 196 -710 0 -18 -122 -101 -187 -127 -70 -29 -127 -40
-303 -62 -131 -16 -316 -15 -453 3 l-48 6 6 40 c6 34 5 39 -9 34 -19 -7 -20 1
-6 39 7 17 7 31 1 37 -6 6 17 62 65 156 40 80 119 238 174 351 55 113 106 212
113 221 11 15 24 16 102 7 69 -7 113 -6 190 5 139 20 153 20 159 0z m-2069
-198 c-1 -155 -12 -394 -23 -500 -7 -59 -8 -60 -40 -63 -18 -2 -40 2 -49 9
-11 9 -61 13 -186 12 -94 -1 -181 3 -193 7 -27 11 -47 68 -69 195 -18 106 -31
345 -21 398 l7 37 93 0 c124 0 274 16 366 39 123 31 115 40 115 -134z m-11808
-13222 c-3 -10 -5 -2 -5 17 0 19 2 27 5 18 2 -10 2 -26 0 -35z m11149 -918
c31 -159 83 -398 115 -529 244 -991 692 -2163 1734 -4546 591 -1349 754 -1742
804 -1934 36 -136 30 -184 -45 -401 -87 -253 -117 -376 -117 -490 -1 -106 14
-166 83 -344 86 -224 99 -326 51 -423 -12 -26 -67 -98 -121 -160 -137 -157
-164 -203 -168 -292 -3 -69 -2 -75 51 -182 30 -60 60 -134 66 -163 16 -76 14
-404 -5 -561 -22 -191 -55 -338 -139 -620 -194 -648 -237 -825 -350 -1447
-124 -676 -215 -1267 -252 -1644 -17 -173 -17 -174 -47 -199 -90 -73 -174
-170 -213 -245 -103 -199 -175 -506 -222 -950 -93 -868 -48 -1857 134 -2933
118 -691 334 -1597 549 -2292 24 -80 43 -146 42 -147 -1 -2 -52 15 -112 37
-2107 758 -3086 1116 -3128 1144 -14 9 -32 26 -40 39 -8 12 -36 146 -61 297
-25 151 -75 435 -111 630 -332 1814 -442 2864 -609 5805 -82 1434 -148 2519
-190 3075 -13 179 -41 623 -61 987 -21 365 -41 657 -45 650 -17 -31 -282
-1505 -439 -2442 -55 -330 -132 -784 -171 -1009 -39 -224 -122 -717 -184
-1095 -174 -1050 -467 -2798 -528 -3156 -31 -176 -97 -565 -147 -865 -146
-869 -328 -1844 -350 -1880 -5 -7 -61 -3 -191 14 -317 42 -682 66 -1026 66
-112 0 -203 4 -203 8 0 5 11 73 24 153 35 206 47 392 35 533 -18 211 -75 354
-219 549 -83 112 -84 121 -45 301 24 112 34 233 14 176 -6 -20 -7 -16 -4 15
45 388 49 450 49 890 0 242 -3 685 -8 985 -7 476 -6 565 8 698 44 414 125 660
379 1162 173 342 201 418 218 583 17 170 4 345 -81 1072 -13 105 -19 199 -15
225 9 61 57 105 220 202 225 133 317 224 356 352 20 63 21 84 16 223 -3 84 -2
176 3 205 23 145 92 254 368 585 402 483 492 614 587 863 70 179 107 339 180
772 l54 318 129 207 c71 115 148 242 172 283 24 41 78 129 120 195 42 66 123
199 180 295 57 96 126 211 153 255 62 99 327 551 457 780 455 798 654 1184
967 1870 72 157 333 809 418 1045 205 564 287 824 581 1830 23 80 89 333 146
562 l103 417 12 -57 c6 -31 37 -187 69 -347z m-10399 -6777 c-2 -18 -4 -6 -4
27 0 33 2 48 4 33 2 -15 2 -42 0 -60z m-10 -280 c-2 -18 -4 -6 -4 27 0 33 2
48 4 33 2 -15 2 -42 0 -60z m-10 -280 c-2 -18 -4 -6 -4 27 0 33 2 48 4 33 2
-15 2 -42 0 -60z m-10 -280 c-2 -18 -4 -6 -4 27 0 33 2 48 4 33 2 -15 2 -42 0
-60z m-10 -280 c-2 -13 -4 -3 -4 22 0 25 2 35 4 23 2 -13 2 -33 0 -45z m-10
-280 c-2 -13 -4 -3 -4 22 0 25 2 35 4 23 2 -13 2 -33 0 -45z m-10 -285 c-2
-16 -4 -5 -4 22 0 28 2 40 4 28 2 -13 2 -35 0 -50z m-10 -285 c-2 -13 -4 -3
-4 22 0 25 2 35 4 23 2 -13 2 -33 0 -45z m-10 -265 c-3 -10 -5 -2 -5 17 0 19
2 27 5 18 2 -10 2 -26 0 -35z m-22 -1215 c8 -29 15 -81 15 -118 0 -116 -34
-199 -183 -449 -107 -180 -163 -301 -192 -413 -13 -51 -26 -86 -29 -78 -20 53
-46 202 -46 264 0 67 4 79 47 162 25 49 65 116 88 149 56 79 178 314 203 390
33 98 61 157 72 150 5 -3 16 -29 25 -57z m18636 -5065 c16 -10 39 -37 51 -61
l21 -44 2 -1971 c1 -1085 7 -2305 13 -2712 69 -4504 151 -6462 318 -7590 52
-351 105 -571 208 -868 73 -210 81 -268 47 -336 -40 -78 -350 -350 -475 -415
-126 -67 -142 -13 -76 250 22 87 40 175 40 195 0 57 -27 133 -110 315 -90 193
-122 296 -150 469 -65 402 -86 803 -130 2425 -33 1231 -61 2007 -95 2670 -91
1746 -216 3345 -371 4715 -136 1203 -227 1689 -372 1969 -92 178 -176 262
-364 363 -59 32 -108 64 -108 70 0 16 30 31 170 83 63 24 275 113 470 198 401
174 538 230 660 266 104 31 208 34 251 9z m-14888 -3233 c14 -11 34 -42 44
-68 16 -42 18 -79 17 -327 0 -341 -35 -781 -109 -1370 -81 -658 -281 -1800
-415 -2370 -127 -545 -247 -1032 -318 -1295 -111 -406 -319 -1146 -367 -1300
-29 -96 -99 -330 -155 -520 -56 -190 -133 -446 -172 -570 -38 -124 -128 -416
-199 -650 -72 -234 -152 -492 -179 -575 -27 -82 -101 -323 -165 -535 -64 -212
-140 -461 -170 -555 -69 -220 -366 -1263 -445 -1560 -123 -466 -275 -1085
-407 -1650 -275 -1186 -313 -1348 -389 -1687 -43 -191 -79 -346 -81 -344 -2 2
10 90 26 197 17 107 51 334 75 504 147 1009 275 1786 386 2350 95 480 231
1135 285 1370 123 539 319 1364 425 1795 497 2011 719 2916 775 3160 38 163
176 764 250 1085 96 421 285 1408 349 1825 96 623 140 1125 140 1600 0 400
-26 646 -90 860 -49 159 -96 244 -209 375 -66 76 -76 95 -64 117 20 37 187 68
664 123 355 40 461 44 498 15z m15947 -11385 c129 -40 239 -116 314 -216 46
-61 58 -99 32 -99 -8 0 -64 20 -125 44 -153 62 -300 96 -709 166 -436 74 -441
75 -342 84 41 3 170 15 285 25 249 24 461 22 545 -4z m-3574 -396 c97 -13 218
-51 305 -95 133 -66 293 -208 355 -314 l18 -30 216 0 c226 0 279 -7 319 -43
59 -54 61 -105 10 -255 -16 -47 -27 -87 -25 -89 2 -2 100 84 217 192 l214 195
430 -3 c449 -4 477 -6 562 -50 53 -28 102 -86 118 -140 19 -64 19 -90 -1 -157
-21 -72 -119 -170 -221 -223 -40 -21 -73 -40 -73 -43 0 -2 14 -31 30 -64 l30
-60 131 0 130 0 -6 -57 c-9 -73 -33 -112 -87 -143 -39 -23 -56 -25 -182 -28
-239 -7 -259 3 -333 157 l-46 96 -41 -125 -41 -125 -178 -3 -177 -2 9 22 c4
13 11 36 15 53 l8 30 -21 -27 c-12 -14 -42 -37 -69 -50 -42 -20 -64 -23 -205
-26 -223 -6 -274 17 -287 125 l-5 44 -70 -62 c-93 -83 -137 -102 -252 -107
l-92 -4 -37 -57 c-197 -299 -551 -464 -905 -423 -402 47 -727 338 -826 740
-12 46 -17 110 -17 207 0 208 45 361 155 525 205 306 565 469 925 419z m344
-85 c0 -2 -9 0 -20 6 -11 6 -20 13 -20 16 0 2 9 0 20 -6 11 -6 20 -13 20 -16z
m100 -58 c25 -17 92 -76 150 -131 117 -113 132 -124 199 -135 44 -7 43 -8 -25
-9 l-71 -1 -51 69 c-58 78 -142 157 -219 209 -29 19 -53 37 -53 39 0 5 14 -3
70 -41z m2072 -256 c105 -15 173 -45 233 -104 76 -73 90 -105 90 -201 0 -104
-20 -140 -131 -250 -115 -114 -114 -135 8 -171 27 -9 48 -17 46 -19 -1 -2 -59
-5 -127 -6 l-124 -3 -18 39 c-10 22 -18 43 -18 47 -1 4 31 24 69 44 85 44 168
123 201 190 19 39 24 65 24 124 0 65 -4 82 -31 130 -35 62 -98 111 -177 137
-43 14 -105 17 -364 21 -172 2 -313 7 -313 11 0 4 3 11 7 14 10 11 550 8 625
-3z m-674 -17 c-10 -2 -26 -2 -35 0 -10 3 -2 5 17 5 19 0 27 -2 18 -5z m-498
-218 c21 -7 21 -8 -16 -47 -22 -22 -51 -48 -65 -59 l-27 -19 25 78 c16 51 23
90 20 117 l-5 40 23 -52 c14 -32 31 -54 45 -58z m1487 -599 c9 -80 -28 -130
-129 -176 -60 -27 -80 -25 -27 3 24 13 57 42 73 65 24 34 30 54 34 117 5 76 5
77 24 57 12 -12 22 -39 25 -66z m-693 -39 c14 -35 14 -38 -2 -44 -9 -3 -27
-15 -39 -26 -27 -25 -28 -16 -6 63 18 65 23 66 47 7z m-1036 -62 c-2 -1 -19
-5 -38 -9 l-34 -6 29 30 c29 30 29 30 37 9 5 -12 7 -23 6 -24z m-339 -98 c-2
-2 -22 -16 -43 -32 l-39 -28 19 31 c13 22 26 32 43 32 13 0 22 -1 20 -3z
m1814 -4 c-18 -2 -48 -2 -65 0 -18 2 -4 4 32 4 36 0 50 -2 33 -4z m4602 -1808
c73 -20 105 -47 105 -91 0 -68 -90 -132 -224 -161 -151 -31 -319 -21 -871 56
-154 22 -399 54 -545 71 -146 17 -266 32 -267 33 -1 1 231 2 515 2 524 1 1136
25 1157 46 24 24 -22 26 -255 13 -135 -7 -409 -16 -610 -18 l-365 -5 250 15
c138 8 365 22 505 33 331 24 527 26 605 6z m-23426 -1733 c106 -440 261 -1338
277 -1602 12 -198 -27 -404 -141 -745 -62 -184 -243 -639 -348 -877 -104 -238
-206 -408 -242 -408 -53 0 -24 261 101 923 219 1165 240 1283 273 1582 43 376
48 606 25 1149 -5 113 -4 157 4 153 5 -4 28 -82 51 -175z m-540 -5221 c41 -41
40 -194 -4 -536 -27 -211 -42 -274 -87 -355 -112 -202 -436 -455 -958 -748
-364 -204 -650 -280 -650 -174 0 63 56 126 565 632 254 252 453 473 655 725
266 333 400 475 447 475 7 0 22 -9 32 -19z"/>
<path d="M31813 91849 c-42 -16 -73 -43 -176 -148 -167 -173 -337 -375 -412
-491 -73 -112 -238 -416 -260 -480 -13 -36 -15 -83 -13 -245 l3 -200 -29 -60
c-40 -81 -122 -160 -231 -222 -133 -76 -195 -150 -195 -232 0 -37 23 -51 82
-51 79 1 190 70 299 188 85 91 260 419 333 622 130 362 176 471 223 529 l20
24 24 -69 c21 -59 27 -69 48 -69 46 0 48 26 12 137 -29 87 -33 111 -28 164 12
125 141 371 255 487 l67 68 7 -38 c4 -21 8 -85 9 -143 1 -86 3 -97 9 -60 14
75 24 297 14 302 -5 3 -32 -3 -61 -13z"/>
<path d="M23210 91787 c42 -38 192 -157 320 -254 329 -249 365 -277 375 -285
5 -5 -17 1 -50 13 -66 23 -248 40 -230 21 6 -6 42 -16 80 -22 69 -11 252 -68
310 -98 17 -8 69 -42 116 -76 48 -34 95 -66 105 -73 23 -14 -337 100 -541 172
-193 68 -259 94 -374 144 -51 23 -97 40 -102 39 -7 -3 113 -205 325 -548 57
-91 116 -190 132 -219 35 -66 225 -266 339 -358 105 -84 352 -243 379 -243 12
0 71 -18 133 -40 61 -21 150 -46 196 -55 124 -23 355 -33 567 -24 215 8 199 7
180 19 -8 5 -80 10 -160 10 -177 0 -396 15 -510 35 -414 72 -757 309 -1022
706 -55 83 -246 439 -235 439 35 0 783 -230 863 -265 45 -20 55 -28 49 -42
-20 -52 -27 -136 -15 -200 16 -95 50 -164 115 -232 95 -100 211 -147 344 -139
81 5 120 20 175 68 l34 30 158 -123 c171 -133 207 -165 242 -212 14 -20 24
-26 29 -18 6 8 20 8 57 -1 l49 -13 -56 -55 c-60 -61 -52 -58 -257 -98 -118
-23 -96 -25 52 -5 154 21 170 28 248 101 37 35 74 64 82 64 8 0 47 -40 86 -90
65 -81 102 -110 102 -79 0 6 -22 39 -48 73 -50 62 -66 86 -60 86 2 0 41 -43
87 -95 75 -86 111 -113 111 -84 0 5 5 7 11 3 14 -8 6 -152 -15 -289 -8 -49
-37 -229 -64 -400 -28 -170 -64 -400 -81 -510 -17 -110 -51 -326 -76 -480 -48
-295 -54 -389 -31 -433 13 -24 113 -121 206 -198 50 -42 38 2 -13 50 -24 23
-65 70 -90 105 -43 58 -47 68 -47 120 0 49 20 211 35 281 2 13 7 42 10 65 6
36 98 596 201 1215 22 134 39 275 42 349 l4 123 145 -4 c103 -3 139 -1 126 6
-10 6 -77 12 -149 14 -130 4 -131 4 -147 31 -9 15 -43 60 -76 99 -34 40 -64
85 -68 100 -3 15 1 64 12 112 26 123 28 140 19 140 -13 0 -93 -142 -100 -178
-4 -18 -8 -32 -11 -32 -2 0 -48 33 -101 73 -53 40 -126 93 -162 117 -36 24
-213 154 -395 290 -429 320 -506 375 -775 553 -248 166 -617 392 -958 589
-205 117 -271 150 -232 115z m1423 -1131 c47 -43 48 -106 2 -152 -34 -34 -67
-31 -104 11 -36 42 -39 71 -11 125 18 35 25 40 54 40 21 0 42 -9 59 -24z"/>
<path d="M28500 91601 c-216 -109 -617 -347 -606 -358 3 -3 92 45 198 105 106
61 258 147 338 192 80 45 149 85 155 91 18 18 -11 8 -85 -30z"/>
<path d="M28154 91489 c-170 -100 -524 -334 -579 -383 l-40 -37 60 37 c33 21
168 108 300 194 132 86 277 180 323 209 72 46 91 61 79 61 -2 0 -66 -37 -143
-81z"/>
<path d="M31837 91045 c-12 -386 -30 -424 -400 -810 -202 -211 -203 -215 -7
-39 202 182 373 361 402 419 49 99 50 108 38 347 -17 321 -25 342 -33 83z"/>
<path d="M30405 91175 c-344 -71 -652 -147 -1000 -246 -380 -109 -558 -170
-1015 -349 -129 -50 -354 -137 -500 -192 -146 -55 -323 -122 -395 -150 -205
-80 -586 -218 -599 -218 -10 0 -149 182 -200 261 -22 36 -25 31 106 190 52 63
118 146 148 184 l55 70 -50 -40 c-146 -115 -228 -191 -277 -257 -71 -92 -75
-106 -47 -160 53 -105 231 -342 296 -395 100 -82 194 -57 837 221 110 47 201
84 203 82 3 -2 -43 -30 -102 -61 -138 -74 -274 -164 -336 -222 -57 -53 -185
-221 -175 -230 3 -4 41 27 84 68 124 120 293 235 524 357 l117 62 59 -57 c68
-67 134 -106 217 -128 148 -38 284 5 432 139 84 75 133 162 157 277 5 23 12
26 78 37 473 78 864 139 868 135 8 -8 -254 -258 -396 -380 -480 -411 -753
-543 -1154 -560 -119 -5 -432 12 -632 33 -74 8 -79 -11 -5 -21 28 -4 147 -25
262 -47 204 -38 217 -39 445 -41 300 -3 371 13 585 131 257 142 861 584 1069
782 107 102 250 270 239 281 -6 6 -42 6 -99 -1 -49 -5 -134 -14 -189 -20 -55
-6 -331 -42 -613 -81 -283 -38 -518 -69 -524 -67 -5 2 28 19 74 38 45 18 163
67 261 107 l178 74 146 -16 c255 -27 237 -11 -37 32 l-54 8 269 97 c236 84
542 186 865 287 136 42 73 37 -175 -14z m-2072 -982 c30 -34 31 -70 3 -97 -32
-33 -60 -33 -91 -1 -30 30 -31 54 -4 89 24 31 68 35 92 9z"/>
<path d="M23490 90679 c0 -17 144 -199 158 -199 22 0 13 16 -59 114 -63 86
-99 117 -99 85z"/>
<path d="M23560 90663 c0 -14 157 -227 172 -232 13 -4 8 3 -64 104 -73 103
-107 143 -108 128z"/>
<path d="M26450 90350 c0 -13 230 -280 242 -280 18 0 3 21 -107 150 -113 132
-135 153 -135 130z"/>
<path d="M26440 90279 c0 -6 64 -81 143 -167 160 -177 192 -208 220 -224 18
-9 18 -7 -4 20 -52 64 -344 382 -351 382 -5 0 -8 -5 -8 -11z"/>
<path d="M29444 89834 c-67 -35 -208 -129 -225 -150 -13 -16 -12 -16 9 -5 25
13 285 171 291 177 16 14 -35 -1 -75 -22z"/>
<path d="M25235 89704 c-49 -14 -94 -29 -99 -34 -9 -9 68 11 174 44 75 23 21
16 -75 -10z"/>
<path d="M26198 89723 c-21 -2 -38 -8 -38 -14 0 -5 58 -9 138 -9 92 1 132 4
121 10 -19 11 -167 20 -221 13z"/>
<path d="M29343 89683 c-89 -53 -150 -99 -142 -107 4 -5 207 128 227 149 13
13 -10 1 -85 -42z"/>
<path d="M27350 89632 c0 -15 108 -74 172 -94 87 -27 227 -58 263 -57 26 0 27
2 10 9 -11 5 -72 20 -135 35 -70 16 -151 44 -209 71 -102 48 -101 48 -101 36z"/>
<path d="M27529 89500 c28 -24 181 -74 208 -68 10 2 -38 23 -107 46 -97 32
-120 37 -101 22z"/>
<path d="M26220 87525 c11 -14 110 -55 131 -55 6 0 9 7 7 16 -4 24 -67 54
-112 54 -33 0 -37 -2 -26 -15z"/>
<path d="M25590 86704 c-44 -9 -120 -35 -125 -44 -3 -5 34 -6 82 -3 51 3 155
-1 249 -11 89 -9 177 -16 195 -16 l34 1 -27 23 c-17 15 -49 28 -90 35 -72 12
-280 22 -318 15z"/>
<path d="M26152 86619 c3 -9 35 -18 99 -27 208 -28 415 -65 624 -113 121 -28
228 -52 238 -55 37 -11 14 18 -43 55 -71 46 -198 79 -450 117 -206 31 -475 44
-468 23z"/>
<path d="M25878 86238 c-81 -21 -43 -35 207 -73 178 -28 325 -60 435 -94 118
-38 119 -21 2 38 -138 68 -205 90 -345 116 -144 26 -235 30 -299 13z"/>
<path d="M25970 86155 c0 -8 2 -15 5 -15 36 0 381 -78 465 -105 74 -25 116
-33 122 -27 14 14 -8 24 -159 71 -120 37 -366 91 -413 91 -11 0 -20 -7 -20
-15z"/>
<path d="M26140 86077 c0 -9 56 -34 145 -66 135 -48 165 -54 165 -32 0 7 -288
111 -306 111 -2 0 -4 -6 -4 -13z"/>
<path d="M29160 86033 c0 -21 3 -24 9 -14 5 8 7 20 4 28 -8 21 -13 15 -13 -14z"/>
<path d="M29666 84925 c14 -152 118 -953 150 -1155 64 -406 313 -1639 336
-1667 15 -19 46 -16 57 5 7 13 -11 110 -64 347 -107 482 -156 735 -261 1360
-87 519 -230 1248 -218 1110z"/>
<path d="M30020 84543 c0 -5 34 -128 77 -275 54 -191 81 -268 91 -268 8 0 12
6 9 15 -4 8 -31 101 -62 207 -31 106 -65 223 -76 261 -11 37 -24 67 -29 67 -6
0 -10 -3 -10 -7z"/>
<path d="M31429 82528 c-117 -95 -215 -179 -217 -185 -13 -42 61 11 376 270
65 54 89 87 63 87 -6 0 -105 -78 -222 -172z"/>
<path d="M30483 86340 c3 -12 57 -109 121 -218 64 -108 182 -311 264 -451 132
-228 172 -286 172 -252 0 6 -52 100 -116 208 -63 109 -186 318 -271 466 -142
242 -185 305 -170 247z"/>
<path d="M30270 86331 c0 -5 69 -105 153 -223 426 -592 447 -618 447 -583 0
10 -49 80 -388 548 -176 242 -212 286 -212 258z"/>
<path d="M30780 86147 c0 -7 35 -98 79 -203 43 -104 104 -252 136 -329 59
-143 70 -163 81 -152 7 7 -41 130 -183 470 -85 203 -113 255 -113 214z"/>
<path d="M33558 83214 c-4 -6 -44 -237 -89 -515 -44 -277 -88 -545 -96 -595
l-15 -91 -51 -25 c-205 -101 -406 -354 -497 -627 -42 -126 -61 -220 -68 -351
l-7 -115 -113 277 c-142 348 -159 388 -172 388 -5 0 -10 -6 -10 -14 0 -14 147
-381 237 -591 41 -95 61 -157 73 -230 10 -55 17 -101 16 -102 -1 -1 -57 134
-124 300 -215 535 -372 920 -376 925 -3 2 -9 1 -14 -2 -5 -3 16 -72 48 -153
172 -441 489 -1216 501 -1223 4 -3 25 -46 47 -97 58 -134 141 -255 246 -358
209 -207 422 -294 690 -282 200 9 358 70 522 201 199 159 365 444 414 711 31
169 29 399 -6 570 l-17 80 57 280 c32 154 68 332 81 395 13 63 20 119 16 123
-14 14 -19 -3 -61 -209 -53 -259 -110 -517 -114 -522 -2 -2 -10 14 -16 35 -38
116 -149 291 -257 404 -91 95 -166 151 -280 208 -116 58 -208 82 -341 88 -125
6 -210 -5 -323 -42 -38 -12 -69 -22 -69 -21 0 11 82 543 125 806 52 319 61
402 43 374z m-54 -1490 c64 -22 154 -107 189 -178 61 -124 62 -278 4 -401 -69
-145 -164 -215 -291 -215 -94 0 -154 28 -223 103 -92 101 -133 229 -114 359
23 164 111 286 239 333 51 19 139 18 196 -1z m896 -1247 c50 -7 79 -26 95 -63
18 -45 13 -80 -26 -161 -55 -115 -154 -151 -237 -85 -51 41 -72 86 -72 155 0
63 25 107 80 145 36 24 42 24 160 9z"/>
<path d="M32887 82193 c4 -515 6 -573 23 -573 12 0 13 476 3 838 -4 179 -9
242 -18 242 -10 0 -11 -116 -8 -507z"/>
<path d="M24070 86626 c0 -3 -16 -166 -35 -362 -20 -197 -33 -359 -30 -362 15
-16 24 41 54 343 40 399 39 377 24 382 -7 3 -13 2 -13 -1z"/>
<path d="M23960 86445 c0 -19 -9 -197 -21 -396 -11 -199 -18 -364 -14 -367 17
-17 23 44 39 358 9 190 19 366 22 393 5 39 3 47 -10 47 -12 0 -16 -10 -16 -35z"/>
<path d="M22600 85320 c61 -158 340 -692 550 -1050 268 -459 459 -787 555
-955 54 -93 125 -217 160 -275 34 -58 131 -224 215 -370 84 -146 158 -271 166
-279 40 -43 14 18 -84 196 -60 109 -183 338 -272 508 -187 357 -262 493 -445
805 -73 124 -230 394 -350 600 -383 659 -498 855 -507 865 -5 6 0 -15 12 -45z"/>
<path d="M22380 83914 c0 -4 56 -86 123 -183 68 -97 253 -362 411 -588 158
-227 292 -413 297 -413 21 0 2 33 -139 234 -186 265 -575 822 -628 898 -33 49
-64 74 -64 52z"/>
<path d="M24167 82963 c-5 -10 230 -497 242 -501 31 -10 10 47 -95 264 -105
218 -133 262 -147 237z"/>
<path d="M24320 82826 c0 -8 50 -124 111 -258 215 -473 252 -558 247 -563 -3
-3 -42 19 -87 50 -212 146 -487 229 -706 211 -119 -10 -200 -32 -300 -81 -340
-165 -503 -539 -418 -955 22 -109 60 -223 108 -327 24 -51 42 -93 40 -93 -4 0
-288 159 -795 445 -670 378 -913 515 -916 515 -2 0 -4 -6 -4 -14 0 -7 129 -86
288 -176 485 -274 819 -463 997 -563 464 -260 466 -261 515 -332 25 -35 68
-90 95 -122 27 -31 68 -82 90 -112 78 -105 203 -204 332 -263 103 -46 205 -68
363 -79 316 -21 509 37 687 205 132 125 214 279 243 459 20 119 8 339 -23 457
-62 232 -193 460 -366 638 -58 59 -66 74 -200 374 -213 479 -268 593 -285 596
-9 2 -16 -3 -16 -12z m-359 -676 c118 -40 202 -113 253 -220 28 -59 31 -74 31
-160 0 -82 -4 -103 -27 -152 -52 -112 -189 -215 -320 -238 -79 -15 -190 0
-257 35 -242 122 -303 422 -126 614 56 60 144 114 211 130 70 16 171 12 235
-9z"/>
<path d="M22065 82300 c-4 -7 4 -24 17 -38 13 -15 85 -97 159 -182 534 -614
622 -711 632 -701 7 7 -17 41 -79 111 -49 56 -156 179 -239 274 -513 592 -479
555 -490 536z"/>
<path d="M21105 81950 c-3 -5 5 -16 17 -23 24 -15 259 -145 393 -217 44 -24
125 -69 180 -100 55 -32 219 -123 365 -202 146 -80 347 -191 446 -247 171 -95
221 -116 212 -90 -2 6 -69 47 -148 91 -452 249 -875 483 -1020 563 -234 131
-426 235 -433 235 -3 0 -8 -4 -12 -10z"/>
<path d="M17150 78514 c-113 -13 -277 -32 -365 -43 -166 -21 -691 -117 -945
-173 -139 -30 -250 -70 -250 -88 0 -34 55 -27 492 59 112 22 259 49 328 61
164 27 980 179 1003 186 31 10 18 24 -20 23 -21 -1 -130 -12 -243 -25z"/>
<path d="M17010 78339 c-19 -5 -73 -21 -120 -36 -47 -14 -200 -56 -340 -94
-140 -37 -358 -96 -485 -132 -126 -35 -321 -88 -432 -117 -112 -29 -203 -57
-203 -62 0 -4 6 -8 13 -8 6 0 185 45 397 99 212 55 502 129 645 165 143 36
298 77 345 90 47 14 121 36 165 48 53 16 80 29 80 38 0 18 -20 21 -65 9z"/>
<path d="M16990 78190 c-30 -10 -172 -53 -315 -95 -143 -42 -377 -114 -520
-160 -143 -46 -338 -108 -434 -136 -153 -47 -196 -67 -178 -85 3 -3 65 13 137
35 73 23 139 41 148 41 18 0 419 118 443 131 8 4 193 60 410 124 216 64 398
120 403 125 13 13 -1 40 -21 39 -10 0 -43 -9 -73 -19z"/>
<path d="M14122 64218 c-7 -7 -12 -16 -12 -21 0 -4 152 -83 338 -174 185 -90
423 -207 528 -259 105 -52 196 -94 202 -94 7 0 12 10 12 23 0 24 15 16 -455
243 -143 69 -335 164 -427 210 -92 46 -169 84 -171 84 -2 0 -8 -5 -15 -12z"/>
<path d="M14230 63991 c0 -14 25 -29 113 -65 216 -89 423 -175 567 -236 137
-59 270 -110 284 -110 3 0 6 10 6 23 0 20 -17 30 -147 82 -82 32 -193 79 -248
103 -185 82 -535 222 -555 222 -13 0 -20 -7 -20 -19z"/>
<path d="M35962 76988 c6 -22 464 -469 471 -461 8 7 -451 473 -466 473 -5 0
-7 -6 -5 -12z"/>
<path d="M34800 64881 c0 -5 6 -13 13 -19 13 -11 368 -241 577 -374 69 -44
130 -84 135 -90 12 -11 -118 47 -483 216 -151 69 -280 126 -288 126 -8 0 -14
-6 -14 -13 0 -8 126 -71 293 -147 160 -73 378 -173 484 -222 106 -48 200 -88
208 -88 46 0 -7 46 -190 164 -741 479 -735 475 -735 447z"/>
<path d="M32010 73765 c0 -9 6 -18 13 -21 7 -2 217 -49 467 -103 576 -125
1254 -278 1477 -333 134 -33 175 -40 185 -30 9 9 4 15 -23 26 -45 19 -258 70
-604 146 -308 68 -522 116 -690 156 -160 37 -797 174 -812 174 -7 0 -13 -7
-13 -15z"/>
<path d="M30625 65669 c-770 -152 -1329 -231 -1820 -258 -486 -27 -1292 2
-1640 59 -66 11 -178 29 -250 40 -71 11 -235 41 -363 66 -434 83 -602 106
-602 84 0 -33 443 -183 1253 -424 251 -75 469 -141 484 -147 70 -27 376 -111
452 -124 49 -9 147 -15 237 -15 l153 0 242 -60 c452 -112 644 -146 884 -154
683 -25 3815 -50 3845 -31 23 14 -12 23 -165 39 -82 9 -271 30 -420 46 -388
43 -1002 108 -1200 128 l-170 17 997 0 c548 0 1000 3 1004 8 4 4 5 10 2 13 -3
3 -230 17 -504 30 -426 22 -546 24 -824 18 -781 -17 -836 -15 -1660 76 -195
21 -411 44 -480 50 -69 6 -150 15 -180 20 -30 6 -134 16 -230 25 -312 27 -314
12 22 128 352 121 793 267 1016 337 89 28 162 55 162 61 0 14 -30 10 -245 -32z"/>
<path d="M25150 64479 c-675 -16 -1237 -56 -1834 -129 -88 -11 -200 -20 -250
-20 -79 0 -88 -2 -76 -15 13 -12 122 -8 875 35 818 47 1165 68 1445 89 69 5
238 15 375 22 138 8 237 16 220 20 -41 8 -386 8 -755 -2z"/>
<path d="M28691 79877 c-57 -34 -68 -113 -22 -156 50 -46 192 -66 256 -36 73
35 72 149 -2 185 -41 19 -202 24 -232 7z m210 -58 c24 -13 26 -74 3 -83 -48
-19 -190 2 -201 30 -10 26 6 62 30 68 32 7 147 -3 168 -15z"/>
<path d="M25865 79750 c-7 -12 15 -55 58 -112 19 -25 101 -153 182 -284 80
-131 153 -246 161 -254 12 -12 14 -12 14 1 0 9 -61 114 -136 235 -75 120 -155
253 -177 294 -64 120 -86 146 -102 120z"/>
<path d="M30381 63515 c-35 -8 -69 -16 -75 -18 -15 -5 -15 -57 0 -57 7 0 15
-18 19 -40 4 -22 10 -42 15 -45 4 -3 4 14 -1 37 -6 23 -6 45 -2 49 16 16 167
31 238 24 107 -9 217 -43 321 -96 l94 -48 -6 27 c-4 15 -14 35 -22 45 -27 31
-193 107 -267 122 -87 18 -229 18 -314 0z"/>
<path d="M34098 60743 c7 -3 16 -2 19 1 4 3 -2 6 -13 5 -11 0 -14 -3 -6 -6z"/>
<path d="M29408 59813 c6 -2 18 -2 25 0 6 3 1 5 -13 5 -14 0 -19 -2 -12 -5z"/>
<path d="M28934 58604 c62 -33 275 -119 436 -177 162 -59 257 -82 405 -101
107 -14 494 -46 553 -46 33 0 28 30 -5 31 -16 0 -35 2 -43 4 -17 4 -168 31
-215 39 -16 2 -88 16 -160 30 -71 14 -186 35 -255 46 -169 28 -370 79 -578
145 -95 30 -176 55 -180 55 -4 -1 15 -12 42 -26z"/>
<path d="M32595 58585 c-180 -47 -205 -51 -205 -31 0 9 -8 16 -20 16 -23 0
-703 -142 -793 -166 -92 -24 -951 -203 -955 -199 -2 2 -4 79 -3 172 0 92 -2
180 -5 196 -10 49 -30 30 -42 -40 -11 -68 -16 -96 -28 -143 -3 -14 -8 -67 -11
-117 l-5 -92 -59 -12 c-64 -13 -90 -32 -71 -51 9 -9 26 -9 69 0 31 6 59 9 62
6 3 -3 8 -155 11 -337 4 -293 7 -336 23 -364 10 -18 24 -33 32 -33 13 0 15 45
15 319 0 175 3 346 6 379 l7 61 71 16 c39 8 232 49 428 90 197 41 392 83 435
94 100 26 411 91 426 90 21 -2 -157 -48 -609 -158 -242 -59 -446 -111 -452
-115 -18 -11 -14 -36 5 -36 10 0 426 102 925 226 799 200 908 229 908 245 0
25 -9 24 -165 -16z m-568 -141 c-3 -3 -12 -4 -19 -1 -8 3 -5 6 6 6 11 1 17 -2
13 -5z"/>
<path d="M33585 57935 c-110 -29 -297 -89 -415 -133 -265 -98 -1088 -382
-1305 -450 -88 -28 -268 -82 -400 -121 -298 -87 -723 -235 -748 -260 -27 -27
-23 -26 463 105 473 128 1029 308 1765 571 572 204 844 308 865 328 13 13 12
15 -5 14 -11 -1 -110 -25 -220 -54z"/>
<path d="M27783 57285 c-3 -9 -3 -18 0 -21 6 -6 409 -114 724 -194 106 -27
197 -51 202 -54 16 -11 810 -206 836 -206 18 0 25 5 25 20 0 23 24 16 -390
120 -342 86 -612 158 -594 159 21 2 518 -78 556 -89 61 -17 1021 -171 1043
-167 34 6 5 13 -395 92 -212 42 -420 86 -464 96 -185 47 -401 85 -936 164
-241 36 -230 35 -236 21 -4 -10 -43 -4 -177 30 -95 24 -176 44 -180 44 -4 0
-10 -7 -14 -15z m784 -171 c-3 -3 -12 -4 -19 -1 -8 3 -5 6 6 6 11 1 17 -2 13
-5z"/>
<path d="M30310 56791 c-19 -11 -46 -31 -60 -46 -20 -21 -22 -28 -10 -35 8 -5
18 -6 22 -4 4 3 18 7 29 9 12 3 30 12 40 21 12 11 45 19 96 23 l78 6 -64 23
c-77 26 -86 27 -131 3z"/>
<path d="M31040 56733 c0 -4 -48 -9 -108 -11 -182 -5 -212 -22 -212 -122 0
-56 15 -100 37 -107 6 -2 49 30 95 72 46 43 103 89 128 103 55 31 83 59 70 67
-6 3 -10 3 -10 -2z"/>
<path d="M30504 56618 c-62 -33 -77 -73 -49 -127 16 -33 12 -41 -24 -41 -19
-1 -12 -6 26 -19 28 -11 57 -22 63 -26 7 -4 5 6 -4 23 -14 27 -14 31 3 46 22
20 44 99 36 126 -8 24 -27 30 -51 18z"/>
<path d="M22514 54749 c-10 -17 6 -23 119 -49 463 -105 1187 -307 1642 -459
99 -33 342 -117 540 -186 455 -161 453 -160 461 -152 4 4 5 9 3 11 -6 6 -863
307 -1009 354 -401 131 -786 242 -1230 356 -184 48 -344 92 -355 98 -18 11
-125 37 -152 38 -6 0 -15 -5 -19 -11z"/>
<path d="M23730 54610 c0 -5 2 -10 4 -10 14 0 757 -180 910 -221 565 -150
1054 -315 1531 -516 301 -128 988 -403 1176 -471 313 -115 707 -227 969 -276
288 -55 642 -95 600 -68 -8 5 -96 26 -195 47 -410 85 -833 189 -960 236 -28
10 -73 23 -101 28 -28 6 -122 35 -210 66 -212 76 -715 274 -734 290 -18 15
-52 30 -430 183 -564 228 -672 267 -1240 446 -212 67 -518 149 -655 175 -93
18 -631 101 -654 101 -6 0 -11 -4 -11 -10z"/>
<path d="M32280 54471 c-250 -54 -494 -107 -541 -119 -48 -12 -313 -69 -590
-127 -277 -58 -508 -110 -513 -115 -7 -7 -6 -14 1 -21 10 -10 693 128 1018
206 77 18 361 79 630 136 270 56 496 106 503 111 21 18 13 28 -20 27 -18 -1
-238 -45 -488 -98z"/>
<path d="M34640 53453 c-184 -64 -494 -170 -687 -235 -335 -114 -376 -132
-343 -153 11 -7 271 74 540 167 96 34 329 113 517 177 188 64 347 121 354 128
15 15 3 33 -24 32 -12 0 -173 -52 -357 -116z"/>
<path d="M29747 49560 c-131 -41 -174 -194 -84 -297 56 -64 134 -80 214 -44
63 29 98 88 98 166 0 51 -5 69 -28 103 -44 62 -131 94 -200 72z"/>
<path d="M33470 38328 c0 -7 52 -170 115 -363 62 -192 113 -351 111 -352 -2
-2 -45 118 -96 267 -86 252 -105 292 -124 261 -3 -5 8 -48 24 -95 27 -81 28
-87 10 -81 -27 9 -27 -1 20 -227 46 -227 84 -353 309 -1028 177 -528 217 -634
332 -865 40 -82 73 -163 79 -195 5 -30 18 -165 29 -300 23 -284 96 -720 123
-736 17 -11 4 114 -53 516 -27 195 -55 416 -60 490 -12 149 -11 147 -124 420
-104 251 -618 1800 -603 1815 2 2 25 -60 52 -138 27 -78 80 -225 117 -327 38
-102 95 -261 126 -355 43 -126 63 -171 76 -173 10 -2 17 3 17 12 0 13 -102
307 -190 545 -17 46 -29 86 -27 88 3 2 10 -10 17 -27 14 -33 36 -36 33 -4 -2
21 -267 837 -278 854 -9 14 -35 13 -35 -2z"/>
<path d="M18327 37623 c-4 -3 -7 -24 -7 -46 0 -72 210 -2457 230 -2607 5 -41
21 -203 35 -360 14 -156 29 -288 34 -293 25 -25 31 10 31 176 0 266 -28 684
-60 922 -5 39 -35 358 -65 710 -60 696 -69 776 -120 1120 -60 404 -58 398 -78
378z"/>
<path d="M32344 37316 c-3 -8 19 -57 49 -108 30 -51 110 -196 177 -323 68
-126 134 -247 146 -267 13 -20 58 -101 99 -180 203 -381 340 -618 357 -618 10
0 18 5 18 10 0 6 -35 72 -78 148 -43 75 -127 229 -187 342 -60 113 -127 237
-150 275 -24 39 -84 149 -135 245 -176 333 -267 490 -281 490 -5 0 -12 -6 -15
-14z"/>
<path d="M22465 37020 c-4 -6 -19 -48 -35 -93 -31 -90 -37 -86 -16 11 30 140
-12 42 -119 -274 -163 -485 -275 -732 -534 -1182 -67 -117 -121 -217 -119
-224 4 -12 203 273 304 437 37 61 93 164 124 230 80 170 81 172 77 155 -3 -8
-17 -54 -33 -102 -28 -88 -26 -116 7 -103 17 7 394 1129 384 1145 -8 13 -32
13 -40 0z"/>
<path d="M32703 36934 c-3 -9 4 -27 16 -42 11 -15 53 -74 93 -132 39 -58 117
-168 172 -245 55 -77 168 -237 251 -355 248 -353 298 -420 312 -420 24 0 13
27 -46 111 -33 46 -104 147 -157 224 -54 77 -136 194 -184 260 -47 66 -117
165 -155 220 -138 202 -278 395 -287 395 -5 0 -11 -7 -15 -16z"/>
<path d="M21466 34893 c-4 -28 -2 -136 4 -240 7 -103 11 -253 9 -333 -4 -143
-5 -146 -40 -221 -74 -155 -265 -438 -637 -942 -101 -138 -410 -633 -400 -642
5 -5 386 507 645 865 303 420 454 659 488 774 23 75 18 176 -20 487 -20 156
-37 289 -39 294 -2 6 -6 -13 -10 -42z"/>
<path d="M21598 33768 c-20 -29 -107 -156 -192 -283 -85 -126 -190 -279 -232
-340 -41 -60 -78 -117 -82 -125 -7 -18 -175 -270 -335 -504 -64 -93 -114 -173
-111 -178 9 -14 -12 -44 358 497 87 127 189 275 229 330 106 150 428 628 430
639 1 5 -5 11 -13 13 -9 2 -30 -17 -52 -49z"/>
<path d="M21393 33693 c-188 -249 -494 -654 -592 -783 -57 -74 -106 -142 -109
-150 -3 -8 -82 -116 -174 -239 -93 -123 -172 -230 -175 -237 -19 -49 38 16
198 229 100 133 202 265 225 292 42 48 295 379 456 596 42 57 124 166 182 242
94 124 116 167 86 167 -5 0 -48 -53 -97 -117z"/>
<path d="M20118 32594 c-3 -5 -18 -47 -33 -94 -15 -47 -66 -193 -112 -325 -46
-132 -118 -364 -160 -515 -261 -948 -333 -1215 -330 -1224 2 -5 25 56 52 135
26 79 63 180 80 224 64 158 185 535 249 775 37 135 71 255 76 268 11 26 185
661 193 707 6 30 -6 65 -15 49z"/>
<path d="M19635 31538 c-2 -7 -47 -242 -100 -523 -52 -280 -100 -523 -106
-540 -23 -66 -60 -298 -50 -308 19 -19 29 4 49 108 12 64 23 99 30 98 7 -2 12
2 12 7 0 6 -4 10 -10 10 -5 0 -10 10 -10 22 0 18 188 1041 205 1116 6 23 -12
32 -20 10z"/>
<path d="M19725 30458 c-3 -13 -39 -219 -80 -458 -42 -239 -85 -475 -95 -525
-22 -105 -170 -957 -170 -980 0 -8 8 -15 18 -15 16 0 26 48 91 428 40 235 88
504 107 598 46 236 164 917 164 948 0 33 -28 35 -35 4z"/>
<path d="M19465 30410 c-3 -5 -1 -10 4 -10 6 0 11 5 11 10 0 6 -2 10 -4 10 -3
0 -8 -4 -11 -10z"/>
<path d="M33465 15840 c-226 -36 -437 -167 -562 -350 -139 -205 -178 -477 -99
-707 27 -79 57 -143 66 -143 8 0 27 41 197 435 213 492 238 541 298 569 44 21
83 20 122 -4 64 -38 64 -38 165 -677 6 -40 15 -73 18 -73 4 0 60 118 124 263
65 144 129 279 143 299 39 57 92 78 197 78 l87 0 -36 45 c-84 102 -269 213
-416 249 -83 20 -226 28 -304 16z"/>
<path d="M34386 15398 l-45 -73 163 -5 163 -5 -118 -335 c-65 -184 -119 -337
-119 -339 0 -11 169 8 195 22 17 8 101 79 187 156 87 78 160 141 162 141 3 0
-12 -51 -34 -112 -70 -199 -64 -208 149 -208 164 0 211 10 248 54 l26 31 -122
3 c-66 1 -121 6 -121 10 0 5 16 55 35 112 19 57 35 112 35 121 0 32 -35 62
-81 68 l-43 6 154 137 155 137 321 1 c177 0 335 -3 353 -6 51 -10 81 -46 81
-96 0 -86 -55 -136 -211 -193 -61 -22 -93 -38 -91 -47 14 -55 128 -288 153
-310 29 -28 30 -28 177 -28 162 0 205 11 229 60 l12 25 -118 3 -118 3 -52 116
c-38 84 -49 119 -40 122 49 16 192 97 231 131 111 96 116 245 11 314 -74 49
-142 56 -565 56 l-387 0 -302 -275 c-167 -151 -304 -273 -306 -272 -1 2 32
107 74 233 56 168 74 237 69 257 -12 50 -44 57 -265 57 l-199 0 -46 -72z"/>
<path d="M33371 15244 c-7 -16 -57 -132 -111 -259 -54 -126 -130 -299 -169
-384 -81 -174 -82 -158 13 -226 83 -58 149 -90 253 -121 118 -36 306 -38 426
-6 268 73 480 274 569 542 30 90 32 103 32 245 0 92 -5 161 -12 178 l-12 28
-147 -3 -147 -3 -146 -321 c-161 -352 -189 -406 -226 -430 -54 -36 -139 -12
-170 47 -14 28 -60 267 -109 564 -31 195 -28 183 -44 149z"/>
<path d="M35355 15212 c-22 -20 -64 -58 -93 -84 l-53 -47 23 -31 c28 -39 28
-111 -1 -193 l-20 -58 122 3 121 3 68 215 c37 118 68 218 68 223 0 4 -44 7
-97 7 l-98 -1 -40 -37z"/>
<path d="M35940 15226 c-4 -13 -14 -42 -20 -65 -6 -23 -14 -49 -17 -56 -8 -23
76 9 119 45 66 54 53 100 -28 100 -38 0 -46 -4 -54 -24z"/>
<path d="M34516 15203 c9 -64 15 -71 29 -33 21 54 19 70 -9 70 -23 0 -24 -3
-20 -37z"/>
<path d="M35651 15208 c-82 -260 -171 -551 -171 -559 0 -5 45 -9 103 -9 l102
0 89 283 c49 155 91 290 94 300 4 15 -6 17 -101 17 l-105 0 -11 -32z"/>
</g>
</svg>
